<?xml version="1.0" encoding="UTF-8"?>
<svg width="595.28pt" version="1.1" xmlns="http://www.w3.org/2000/svg" height="841.89pt" viewBox="0 0 595.28 841.89" xmlns:xlink="http://www.w3.org/1999/xlink">
 <defs>
  <path id="GlBelgika-8th101" d="M5.75 2.57 C5.75 2.33 5.55 2.13 5.31 2.13 L1.46 2.13 C1.19 2.13 1.02 2.38 1.02 2.57 L1.02 6.07 L1.02 9.57 C1.02 9.83 1.27 10 1.46 10 L5.31 10 C5.55 10 5.75 9.81 5.75 9.57 C5.75 9.33 5.55 9.13 5.31 9.13 L1.9 9.13 L1.9 6.5 L4.61 6.5 C4.85 6.5 5.05 6.31 5.05 6.07 C5.05 5.83 4.85 5.63 4.61 5.63 L1.9 5.63 L1.9 3 L5.31 3 C5.55 3 5.75 2.81 5.75 2.57 Z"/>
  <path id="GlBelgika-8th100" d="M1.9 9.13 L1.9 3 L3.21 3 C3.99 3 4.77 3.3 5.37 3.9 C5.96 4.5 6.26 5.28 6.26 6.07 C6.26 6.85 5.96 7.64 5.37 8.23 C4.77 8.83 3.97 9.13 3.2 9.13 L1.9 9.13 L1.9 9.13 Z M1.02 9.57 C1.02 9.76 1.19 10 1.46 10 L3.2 10 C4.19 10 5.22 9.62 5.98 8.85 C6.75 8.09 7.14 7.08 7.14 6.07 C7.14 5.06 6.75 4.05 5.98 3.28 C5.22 2.51 4.21 2.13 3.21 2.13 L1.46 2.13 C1.27 2.13 1.02 2.3 1.02 2.57 L1.02 9.57 Z"/>
  <path id="GlBelgika-8th105" d="M1.56 2.13 C1.32 2.13 1.13 2.33 1.13 2.57 L1.13 9.57 C1.13 9.81 1.32 10 1.56 10 C1.8 10 2 9.81 2 9.57 L2 2.57 C2 2.33 1.8 2.13 1.56 2.13 Z"/>
  <path id="GlBelgika-8th116" d="M-0.03 2.57 C-0.03 2.81 0.17 3 0.41 3 L2.77 3 L2.77 9.57 C2.77 9.81 2.97 10 3.21 10 C3.45 10 3.65 9.81 3.65 9.57 L3.65 3 L6.01 3 C6.25 3 6.45 2.81 6.45 2.57 C6.45 2.33 6.25 2.13 6.01 2.13 L3.21 2.13 L0.41 2.13 C0.17 2.13 -0.03 2.33 -0.03 2.57 Z"/>
  <path id="GlBelgika-8th111" d="M4.61 9.13 C2.92 9.13 1.55 7.76 1.55 6.07 C1.55 4.38 2.92 3 4.61 3 C6.3 3 7.67 4.38 7.67 6.07 C7.67 7.76 6.3 9.13 4.61 9.13 L4.61 9.13 Z M4.61 10 C6.78 10 8.55 8.24 8.55 6.07 C8.55 3.89 6.78 2.13 4.61 2.13 C2.43 2.13 0.67 3.89 0.67 6.07 C0.67 8.24 2.43 10 4.61 10 Z"/>
  <path id="GlBelgika-8th114" d="M1.89 6.5 L2.75 6.5 L4.39 9.76 C4.47 9.92 4.62 10 4.79 10 C4.85 10 4.92 9.99 4.98 9.96 C5.13 9.88 5.22 9.73 5.22 9.56 C5.22 9.5 5.2 9.43 5.17 9.37 L3.7 6.45 C4.67 6.22 5.4 5.36 5.4 4.32 C5.4 3.12 4.44 2.13 3.22 2.13 L1.46 2.13 C1.27 2.13 1.02 2.3 1.02 2.57 L1.02 9.57 C1.02 9.81 1.22 10 1.46 10 C1.7 10 1.89 9.81 1.89 9.57 L1.89 6.5 L1.89 6.5 Z M1.89 5.63 L1.89 3 L3.22 3 C3.94 3 4.52 3.59 4.52 4.32 C4.52 5.05 3.93 5.63 3.21 5.63 L1.89 5.63 Z"/>
  <path id="GlBelgika-8th115" d="M0.94 8.1 C0.77 8.17 0.67 8.34 0.67 8.51 C0.67 8.57 0.68 8.62 0.7 8.68 C0.81 8.94 0.97 9.17 1.17 9.37 C1.56 9.76 2.11 10 2.71 10 C3.91 10 4.87 9.03 4.87 7.83 C4.87 7.26 4.65 6.61 4.07 6.19 L2.11 4.76 C1.91 4.61 1.7 4.21 1.7 3.98 C1.7 3.45 2.14 3 2.68 3 C2.95 3 3.19 3.11 3.38 3.29 C3.48 3.39 3.54 3.47 3.58 3.59 C3.65 3.75 3.82 3.85 3.99 3.85 C4.05 3.85 4.1 3.84 4.16 3.82 C4.32 3.75 4.42 3.58 4.42 3.41 C4.42 3.36 4.41 3.3 4.39 3.24 C4.3 3.02 4.16 2.83 3.98 2.66 C3.66 2.34 3.19 2.13 2.68 2.13 C1.65 2.13 0.83 2.97 0.83 3.98 C0.83 4.55 1.15 5.14 1.59 5.47 L3.55 6.89 C3.86 7.12 4 7.47 4 7.83 C4 8.55 3.42 9.13 2.71 9.13 C2.35 9.13 2.02 8.99 1.78 8.75 C1.67 8.63 1.58 8.5 1.51 8.34 C1.44 8.17 1.28 8.07 1.1 8.07 C1.05 8.07 0.99 8.08 0.94 8.1 Z"/>
  <path id="GlBelgika-8th117" d="M6.88 2.13 C6.64 2.13 6.45 2.33 6.45 2.57 L6.45 6.77 C6.45 8.07 5.39 9.13 4.08 9.13 C2.78 9.13 1.72 8.07 1.72 6.77 L1.72 2.57 C1.72 2.33 1.52 2.13 1.28 2.13 C1.04 2.13 0.85 2.33 0.85 2.57 L0.85 6.77 C0.85 8.56 2.29 10 4.08 10 C5.87 10 7.32 8.56 7.32 6.77 L7.32 2.57 C7.32 2.33 7.12 2.13 6.88 2.13 Z"/>
  <path id="GlBelgika-8th118" d="M0.6 2.16 C0.43 2.22 0.32 2.39 0.32 2.57 C0.32 2.62 0.33 2.67 0.35 2.72 L2.97 9.72 C2.97 9.72 3.21 10.07 3.45 10.07 C3.57 10.07 3.69 9.99 3.79 9.72 L6.42 2.72 C6.44 2.67 6.44 2.62 6.44 2.57 C6.44 2.39 6.34 2.22 6.16 2.16 C6.11 2.14 6.06 2.13 6.01 2.13 C5.83 2.13 5.66 2.24 5.6 2.41 L3.38 8.32 L1.17 2.41 C1.1 2.24 0.93 2.13 0.75 2.13 C0.7 2.13 0.65 2.14 0.6 2.16 Z"/>
  <path id="GlBelgika-8th121" d="M0.5 2.21 C0.38 2.3 0.32 2.43 0.32 2.57 C0.32 2.66 0.35 2.75 0.4 2.82 L2.85 6.21 L2.85 9.57 C2.85 9.81 3.05 10 3.29 10 C3.52 10 3.72 9.81 3.72 9.57 L3.72 6.21 L6.18 2.82 C6.23 2.75 6.26 2.66 6.26 2.57 C6.26 2.43 6.2 2.3 6.08 2.21 C6 2.16 5.91 2.13 5.83 2.13 C5.69 2.13 5.55 2.19 5.47 2.31 L3.29 5.32 L1.11 2.31 C1.03 2.19 0.89 2.13 0.76 2.13 C0.67 2.13 0.58 2.16 0.5 2.21 Z"/>
  <path id="GlBelgika-8th99" d="M6.38 8.44 C6.29 8.35 6.18 8.31 6.07 8.31 C5.96 8.31 5.84 8.35 5.76 8.44 C5.33 8.87 4.75 9.13 4.09 9.13 C2.78 9.13 1.72 8.07 1.72 6.77 L1.72 5.37 C1.72 4.06 2.78 3 4.09 3 C4.75 3 5.33 3.27 5.76 3.7 C5.84 3.78 5.96 3.83 6.07 3.83 C6.18 3.83 6.29 3.78 6.38 3.7 C6.46 3.61 6.51 3.5 6.51 3.39 C6.51 3.28 6.46 3.16 6.38 3.08 C5.79 2.5 4.99 2.13 4.09 2.13 C2.3 2.13 0.85 3.58 0.85 5.37 L0.85 6.77 C0.85 8.56 2.3 10 4.09 10 C4.99 10 5.79 9.64 6.38 9.05 C6.46 8.97 6.5 8.86 6.5 8.74 C6.5 8.63 6.46 8.52 6.38 8.44 Z"/>
  <path id="GlBelgika-8th110" d="M6.36 2.13 C6.12 2.13 5.92 2.33 5.92 2.57 L5.92 8.18 L1.82 2.32 C1.77 2.26 1.72 2.21 1.66 2.18 C1.6 2.15 1.53 2.13 1.46 2.13 C1.41 2.13 1.37 2.14 1.33 2.15 C1.28 2.16 1.24 2.18 1.21 2.21 C1.15 2.25 1.1 2.3 1.07 2.37 C1.04 2.43 1.02 2.5 1.02 2.57 L1.02 9.57 C1.02 9.81 1.22 10 1.46 10 C1.7 10 1.9 9.81 1.9 9.57 L1.9 3.96 L6 9.82 C6.04 9.88 6.09 9.92 6.16 9.95 C6.22 9.99 6.29 10 6.36 10 C6.4 10 6.45 10 6.49 9.98 C6.53 9.97 6.57 9.95 6.61 9.93 C6.67 9.88 6.71 9.83 6.74 9.77 C6.78 9.71 6.8 9.64 6.8 9.57 L6.8 2.57 C6.8 2.33 6.6 2.13 6.36 2.13 Z"/>
  <path id="GlBelgika-8th68" d="M1.9 9.13 L1.9 3 L3.21 3 C3.99 3 4.77 3.3 5.37 3.9 C5.96 4.5 6.26 5.28 6.26 6.07 C6.26 6.85 5.96 7.64 5.37 8.23 C4.77 8.83 3.97 9.13 3.2 9.13 L1.9 9.13 L1.9 9.13 Z M1.02 9.57 C1.02 9.76 1.19 10 1.46 10 L3.2 10 C4.19 10 5.22 9.62 5.98 8.85 C6.75 8.09 7.14 7.08 7.14 6.07 C7.14 5.06 6.75 4.05 5.98 3.28 C5.22 2.51 4.21 2.13 3.21 2.13 L1.46 2.13 C1.27 2.13 1.02 2.3 1.02 2.57 L1.02 9.57 Z"/>
  <path id="GlBelgika-8th109" d="M1.02 2.57 L1.02 9.57 C1.02 9.81 1.22 10 1.46 10 C1.7 10 1.9 9.81 1.9 9.57 L1.9 4.41 L4.58 9.76 C4.61 9.81 4.63 9.84 4.67 9.88 C4.7 9.91 4.74 9.94 4.78 9.96 C4.84 9.99 4.91 10 4.98 10 C5.04 10 5.11 9.99 5.17 9.96 C5.21 9.94 5.25 9.91 5.28 9.88 C5.32 9.84 5.34 9.81 5.37 9.76 L8.04 4.42 L8.04 9.57 C8.04 9.81 8.24 10 8.48 10 C8.71 10 8.91 9.81 8.91 9.57 L8.91 2.57 C8.91 2.48 8.89 2.41 8.85 2.34 C8.8 2.27 8.75 2.21 8.67 2.18 C8.64 2.16 8.61 2.15 8.58 2.14 C8.54 2.13 8.51 2.13 8.48 2.13 C8.39 2.13 8.31 2.15 8.25 2.2 C8.18 2.24 8.12 2.3 8.08 2.37 L4.97 8.59 L1.85 2.38 C1.78 2.23 1.63 2.13 1.46 2.13 C1.22 2.13 1.02 2.33 1.02 2.57 Z"/>
  <path id="GlBelgika-8th98" d="M1.89 4.93 L1.89 3 L2.86 3 C3.39 3.01 3.82 3.44 3.82 3.97 C3.82 4.33 3.63 4.64 3.34 4.81 C3.24 4.87 3.12 4.91 2.99 4.93 L1.89 4.93 L1.89 4.93 Z M3.04 5.8 L3.57 5.8 C4.49 5.81 5.22 6.55 5.22 7.47 C5.22 8.39 4.47 9.13 3.56 9.13 L1.89 9.12 L1.89 5.8 L2.77 5.8 C2.8 5.81 2.83 5.81 2.86 5.81 C2.92 5.81 2.98 5.81 3.04 5.8 L3.04 5.8 Z M4.34 5.05 C4.56 4.75 4.7 4.38 4.7 3.97 C4.7 2.95 3.87 2.14 2.87 2.13 L1.46 2.13 C1.27 2.13 1.02 2.3 1.02 2.57 L1.02 9.56 C1.02 9.77 1.21 10 1.46 10 L3.56 10 C4.96 10 6.1 8.88 6.1 7.47 C6.1 6.34 5.36 5.39 4.34 5.05 Z"/>
  <path id="GlBelgika-8th50" d="M1.45 3.82 C1.5 3.84 1.56 3.85 1.61 3.85 C1.78 3.85 1.95 3.75 2.02 3.59 C2.07 3.47 2.13 3.39 2.23 3.29 C2.41 3.11 2.64 3 2.91 3 C3.45 3 3.9 3.44 3.9 3.98 C3.9 4.07 3.85 4.25 3.78 4.39 L0.79 9.34 C0.79 9.34 0.66 9.52 0.66 9.7 C0.66 9.85 0.77 10 1.16 10 L4.57 10 C4.81 10 5.01 9.81 5.01 9.57 C5.01 9.33 4.81 9.13 4.57 9.13 L1.94 9.13 L4.54 4.83 C4.54 4.83 4.55 4.82 4.55 4.81 C4.68 4.56 4.77 4.28 4.77 3.98 C4.77 2.95 3.93 2.13 2.91 2.13 C2.41 2.13 1.95 2.33 1.62 2.66 C1.45 2.82 1.31 3.02 1.21 3.25 C1.19 3.3 1.18 3.36 1.18 3.41 C1.18 3.58 1.28 3.75 1.45 3.82 Z"/>
  <path id="GlBelgika-8th48" d="M0.53 4.5 L0.53 7.64 C0.53 8.95 1.59 10 2.9 10 C4.21 10 5.27 8.95 5.27 7.64 L5.27 4.5 C5.27 3.19 4.21 2.13 2.9 2.13 C1.59 2.13 0.53 3.19 0.53 4.5 L0.53 4.5 Z M1.41 4.5 C1.41 3.67 2.07 3 2.9 3 C3.73 3 4.4 3.67 4.4 4.5 L4.4 7.64 C4.4 8.46 3.73 9.13 2.9 9.13 C2.07 9.13 1.41 8.46 1.41 7.64 L1.41 4.5 Z"/>
  <path id="GlBelgika-8th49" d="M3.43 10 C3.66 10 3.86 9.81 3.86 9.57 L3.86 2.57 C3.86 2.56 3.86 2.56 3.86 2.56 C3.86 2.45 3.82 2.34 3.74 2.27 C3.66 2.18 3.55 2.13 3.43 2.13 L3.42 2.13 C3.3 2.13 3.2 2.18 3.12 2.26 C3.04 2.33 2.99 2.44 2.99 2.56 C2.98 3.18 2.48 3.69 1.85 3.69 C1.61 3.69 1.41 3.89 1.41 4.12 C1.41 4.36 1.61 4.56 1.85 4.56 C2.27 4.56 2.67 4.43 2.99 4.21 L2.99 9.57 C2.99 9.81 3.19 10 3.43 10 Z"/>
  <path id="GlBelgika-8th104" d="M1.46 10 C1.7 10 1.9 9.81 1.9 9.57 L1.9 6.5 L5.22 6.5 L5.22 9.57 C5.22 9.81 5.42 10 5.66 10 C5.9 10 6.1 9.81 6.1 9.57 L6.1 2.57 C6.1 2.33 5.9 2.13 5.66 2.13 C5.42 2.13 5.22 2.33 5.22 2.57 L5.22 5.63 L1.9 5.63 L1.9 2.57 C1.9 2.33 1.7 2.13 1.46 2.13 C1.22 2.13 1.02 2.33 1.02 2.57 L1.02 6.07 L1.02 9.57 C1.02 9.81 1.22 10 1.46 10 Z"/>
  <path id="GlBelgika-8th112" d="M1.9 7.2 L3.54 7.2 C4.94 7.2 6.08 6.08 6.08 4.67 C6.08 3.27 4.96 2.14 3.56 2.13 L1.46 2.13 C1.19 2.13 1.02 2.38 1.02 2.57 L1.02 9.57 C1.02 9.81 1.22 10 1.46 10 C1.7 10 1.9 9.81 1.9 9.57 L1.9 7.2 L1.9 7.2 Z M1.9 6.33 L1.9 3 L3.56 3 C4.47 3.01 5.2 3.75 5.2 4.67 C5.2 5.59 4.46 6.33 3.54 6.33 L1.9 6.33 Z"/>
  <path id="GlBelgika-8th58" d="M1.02 9.57 C1.02 9.81 1.22 10 1.46 10 C1.7 10 1.9 9.81 1.9 9.57 C1.9 9.33 1.7 9.13 1.46 9.13 C1.22 9.13 1.02 9.33 1.02 9.57 L1.02 9.57 Z M1.02 5.77 C1.02 6.01 1.22 6.21 1.46 6.21 C1.7 6.21 1.9 6.01 1.9 5.77 C1.9 5.53 1.7 5.33 1.46 5.33 C1.22 5.33 1.02 5.53 1.02 5.77 Z"/>
  <path id="GlBelgika-8th47" d="M3.82 2.15 C3.78 2.14 3.74 2.13 3.69 2.13 C3.51 2.13 3.33 2.25 3.27 2.43 L1.04 9.43 C1.03 9.48 1.02 9.52 1.02 9.56 C1.02 9.75 1.14 9.93 1.32 9.98 C1.37 10 1.41 10 1.45 10 C1.64 10 1.82 9.88 1.87 9.7 L4.11 2.7 C4.12 2.66 4.13 2.61 4.13 2.57 C4.13 2.39 4.01 2.21 3.82 2.15 Z"/>
  <path id="GlBelgika-8th108" d="M1.46 2.13 C1.22 2.13 1.02 2.33 1.02 2.57 L1.02 9.57 C1.02 9.83 1.27 10 1.46 10 L5.66 10 C5.9 10 6.1 9.81 6.1 9.57 C6.1 9.33 5.9 9.13 5.66 9.13 L1.9 9.13 L1.9 2.57 C1.9 2.33 1.7 2.13 1.46 2.13 Z"/>
  <path id="GlBelgika-8th103" d="M4.71 6.29 C4.71 6.52 4.91 6.72 5.15 6.72 L6.65 6.72 L6.65 8.36 C6.07 8.87 5.33 9.13 4.61 9.13 C3.83 9.13 3.04 8.83 2.44 8.23 C1.84 7.64 1.55 6.85 1.55 6.07 C1.55 5.29 1.84 4.5 2.44 3.9 C3.04 3.3 3.82 3 4.6 3 C5.38 3 6.17 3.3 6.77 3.89 C6.85 3.98 6.96 4.02 7.08 4.02 C7.19 4.02 7.3 3.98 7.39 3.89 C7.47 3.81 7.51 3.69 7.51 3.58 C7.51 3.47 7.47 3.36 7.39 3.27 C6.61 2.5 5.6 2.13 4.6 2.13 C3.6 2.13 2.59 2.51 1.82 3.28 C1.05 4.05 0.67 5.06 0.67 6.07 C0.67 7.07 1.05 8.08 1.82 8.85 C2.59 9.62 3.6 10 4.61 10 C5.61 10 6.63 9.62 7.39 8.85 C7.46 8.78 7.52 8.66 7.52 8.54 L7.52 6.29 C7.52 6.1 7.35 5.85 7.08 5.85 L5.15 5.85 C4.91 5.85 4.71 6.05 4.71 6.29 Z"/>
  <path id="GlBelgika-8th46" d="M1.02 9.57 C1.02 9.81 1.22 10 1.46 10 C1.7 10 1.9 9.81 1.9 9.57 C1.9 9.33 1.7 9.13 1.46 9.13 C1.22 9.13 1.02 9.33 1.02 9.57 Z"/>
  <path id="GlBelgika-8th119" d="M4.89 2.15 C4.82 2.17 4.76 2.21 4.71 2.26 C4.66 2.31 4.62 2.37 4.6 2.44 L2.88 8.07 L1.18 2.44 C1.12 2.25 0.94 2.13 0.75 2.13 C0.71 2.13 0.67 2.14 0.63 2.15 C0.44 2.21 0.32 2.38 0.32 2.57 C0.32 2.61 0.33 2.65 0.34 2.69 L2.47 9.69 C2.49 9.77 2.53 9.83 2.58 9.88 C2.62 9.93 2.69 9.96 2.76 9.99 C2.8 10 2.84 10 2.88 10 C2.93 10 2.97 10 3.01 9.99 C3.08 9.96 3.14 9.93 3.19 9.88 C3.24 9.83 3.28 9.77 3.3 9.7 L5.02 4.07 L6.73 9.69 C6.75 9.77 6.79 9.83 6.84 9.88 C6.89 9.93 6.95 9.96 7.02 9.99 C7.06 10 7.1 10 7.14 10 C7.19 10 7.23 10 7.27 9.99 C7.34 9.96 7.4 9.93 7.45 9.88 C7.5 9.83 7.54 9.77 7.56 9.7 L9.7 2.7 C9.71 2.65 9.72 2.61 9.72 2.57 C9.72 2.38 9.59 2.21 9.41 2.15 C9.37 2.14 9.32 2.13 9.28 2.13 C9.1 2.13 8.92 2.25 8.86 2.44 L7.15 8.07 L5.44 2.44 C5.42 2.37 5.38 2.31 5.33 2.26 C5.28 2.21 5.22 2.17 5.15 2.15 C5.1 2.14 5.06 2.13 5.02 2.13 C4.98 2.13 4.93 2.14 4.89 2.15 Z"/>
  <path id="GlBelgika-8th107" d="M5.79 2.26 C5.71 2.17 5.6 2.13 5.48 2.13 C5.37 2.13 5.26 2.17 5.17 2.26 L1.9 5.5 L1.9 2.57 C1.9 2.33 1.7 2.13 1.46 2.13 C1.22 2.13 1.02 2.33 1.02 2.57 L1.02 9.57 C1.02 9.81 1.22 10 1.46 10 C1.7 10 1.9 9.81 1.9 9.57 L1.9 6.63 L5.17 9.88 C5.26 9.96 5.37 10 5.48 10 C5.6 10 5.71 9.96 5.79 9.88 C5.88 9.79 5.92 9.68 5.92 9.57 C5.92 9.45 5.88 9.34 5.79 9.26 L2.57 6.07 L5.79 2.88 C5.88 2.79 5.92 2.68 5.92 2.57 C5.92 2.46 5.88 2.34 5.79 2.26 Z"/>
  <path id="GlBelgika-8th97" d="M2.2 6.75 L3.19 3.9 C3.45 4.66 3.81 5.68 4.18 6.75 L2.2 6.75 L2.2 6.75 Z M3.6 2.42 C3.58 2.35 3.53 2.28 3.47 2.23 C3.43 2.2 3.38 2.17 3.33 2.15 C3.31 2.15 3.29 2.14 3.27 2.14 C3.25 2.13 3.22 2.13 3.19 2.13 L3.19 2.13 C3.01 2.13 2.84 2.25 2.78 2.42 L0.34 9.42 C0.33 9.47 0.32 9.52 0.32 9.56 C0.32 9.75 0.43 9.92 0.61 9.98 C0.66 10 0.71 10 0.75 10 C0.94 10 1.11 9.89 1.17 9.71 L1.9 7.62 L4.49 7.62 C4.74 8.35 4.99 9.07 5.22 9.71 C5.28 9.89 5.45 10 5.63 10 C5.68 10 5.73 10 5.78 9.98 C5.95 9.92 6.07 9.75 6.07 9.56 C6.07 9.52 6.06 9.47 6.04 9.42 C5.11 6.75 3.66 2.57 3.6 2.42 Z"/>
  <path id="GlBelgika-8th52" d="M3.35 7.13 L1.43 7.13 L3.35 4.08 L3.35 7.13 L3.35 7.13 Z M3.79 10 C4.02 10 4.22 9.81 4.22 9.57 L4.22 8.01 L5.09 8.01 C5.33 8.01 5.53 7.81 5.53 7.57 C5.53 7.33 5.33 7.13 5.09 7.13 L4.22 7.13 L4.22 2.57 C4.22 2.49 4.2 2.42 4.17 2.36 C4.13 2.29 4.08 2.24 4.02 2.2 C3.98 2.17 3.94 2.16 3.91 2.15 C3.87 2.14 3.83 2.13 3.79 2.13 C3.71 2.13 3.64 2.15 3.57 2.19 C3.51 2.22 3.46 2.27 3.41 2.33 L0.26 7.34 C0.26 7.34 0.13 7.53 0.13 7.7 C0.13 7.86 0.24 8.01 0.64 8.01 L3.35 8.01 L3.35 9.57 C3.35 9.81 3.55 10 3.79 10 Z"/>
  <path id="GlBelgika-8th55" d="M0.36 2.57 C0.36 2.81 0.56 3 0.8 3 L4.36 3 L1.8 9.41 C1.77 9.46 1.76 9.51 1.76 9.56 C1.76 9.74 1.87 9.91 2.04 9.97 C2.09 9.99 2.14 10 2.2 10 C2.37 10 2.54 9.9 2.61 9.73 L5.41 2.73 C5.42 2.7 5.43 2.68 5.43 2.65 C5.44 2.62 5.44 2.6 5.44 2.57 C5.44 2.48 5.41 2.39 5.36 2.32 C5.32 2.25 5.25 2.19 5.16 2.16 C5.14 2.15 5.11 2.14 5.08 2.14 C5.06 2.13 5.03 2.13 5 2.13 L0.8 2.13 C0.56 2.13 0.36 2.33 0.36 2.57 Z"/>
  <path id="GlBelgika-8th45" d="M1.02 6.7 C1.02 6.94 1.22 7.13 1.46 7.13 L3.76 7.13 C4 7.13 4.2 6.94 4.2 6.7 C4.2 6.46 4 6.26 3.76 6.26 L1.46 6.26 C1.22 6.26 1.02 6.46 1.02 6.7 Z"/>
  <path id="GlBelgika-8th102" d="M5.75 2.57 C5.75 2.33 5.55 2.13 5.31 2.13 L1.46 2.13 C1.19 2.13 1.02 2.38 1.02 2.57 L1.02 6.07 L1.02 9.57 C1.02 9.81 1.22 10 1.46 10 C1.7 10 1.9 9.81 1.9 9.57 L1.9 6.5 L4.61 6.5 C4.85 6.5 5.05 6.31 5.05 6.07 C5.05 5.83 4.85 5.63 4.61 5.63 L1.9 5.63 L1.9 3 L5.31 3 C5.55 3 5.75 2.81 5.75 2.57 Z"/>
  <path id="GlBelgika-8th87" d="M4.89 2.15 C4.82 2.17 4.76 2.21 4.71 2.26 C4.66 2.31 4.62 2.37 4.6 2.44 L2.88 8.07 L1.18 2.44 C1.12 2.25 0.94 2.13 0.75 2.13 C0.71 2.13 0.67 2.14 0.63 2.15 C0.44 2.21 0.32 2.38 0.32 2.57 C0.32 2.61 0.33 2.65 0.34 2.69 L2.47 9.69 C2.49 9.77 2.53 9.83 2.58 9.88 C2.62 9.93 2.69 9.96 2.76 9.99 C2.8 10 2.84 10 2.88 10 C2.93 10 2.97 10 3.01 9.99 C3.08 9.96 3.14 9.93 3.19 9.88 C3.24 9.83 3.28 9.77 3.3 9.7 L5.02 4.07 L6.73 9.69 C6.75 9.77 6.79 9.83 6.84 9.88 C6.89 9.93 6.95 9.96 7.02 9.99 C7.06 10 7.1 10 7.14 10 C7.19 10 7.23 10 7.27 9.99 C7.34 9.96 7.4 9.93 7.45 9.88 C7.5 9.83 7.54 9.77 7.56 9.7 L9.7 2.7 C9.71 2.65 9.72 2.61 9.72 2.57 C9.72 2.38 9.59 2.21 9.41 2.15 C9.37 2.14 9.32 2.13 9.28 2.13 C9.1 2.13 8.92 2.25 8.86 2.44 L7.15 8.07 L5.44 2.44 C5.42 2.37 5.38 2.31 5.33 2.26 C5.28 2.21 5.22 2.17 5.15 2.15 C5.1 2.14 5.06 2.13 5.02 2.13 C4.98 2.13 4.93 2.14 4.89 2.15 Z"/>
  <path id="GlBelgika-8th63" d="M1.46 3.83 C1.52 3.85 1.57 3.86 1.63 3.86 C1.8 3.86 1.97 3.76 2.04 3.59 C2.09 3.48 2.15 3.38 2.24 3.29 C2.43 3.11 2.67 3 2.94 3 C3.48 3 3.92 3.45 3.92 3.98 C3.92 4.07 3.87 4.25 3.8 4.39 L2.71 6.21 C2.33 6.85 2.24 7.38 2.24 7.91 C2.24 8.15 2.43 8.35 2.67 8.35 C2.92 8.35 3.11 8.15 3.11 7.9 C3.11 7.47 3.16 7.17 3.46 6.66 L4.55 4.83 C4.56 4.83 4.56 4.82 4.57 4.81 C4.7 4.56 4.79 4.28 4.79 3.98 C4.79 2.97 3.97 2.13 2.94 2.13 C2.43 2.13 1.97 2.33 1.63 2.66 C1.46 2.83 1.32 3.04 1.23 3.26 C1.21 3.31 1.2 3.37 1.2 3.42 C1.2 3.59 1.3 3.76 1.46 3.83 L1.46 3.83 Z M2.24 9.56 C2.24 9.8 2.43 10 2.67 10 C2.92 10 3.11 9.8 3.11 9.56 C3.11 9.32 2.92 9.12 2.67 9.12 C2.43 9.12 2.24 9.32 2.24 9.56 Z"/>
  <clipPath id="Clip0">
   <path d="M0 0 L573.75 0 L573.75 135.98 L0 135.98 L0 0 Z" transform="translate(-175.75, 611)"/>
  </clipPath>
  <path id="GlBelgika-8th57" d="M4.55 6.56 L4.55 7.49 C4.55 7.5 4.55 7.51 4.55 7.52 C4.53 8.41 3.8 9.13 2.9 9.13 C2.25 9.13 1.69 8.76 1.42 8.21 C1.35 8.06 1.19 7.97 1.03 7.97 C0.96 7.97 0.9 7.98 0.84 8.01 C0.68 8.09 0.59 8.25 0.59 8.41 C0.59 8.47 0.61 8.54 0.64 8.6 C1.05 9.43 1.91 10 2.9 10 C4.29 10 5.42 8.88 5.42 7.49 C5.42 7.48 5.42 7.48 5.42 7.47 L5.42 4.65 C5.42 3.26 4.29 2.13 2.9 2.13 C1.51 2.13 0.38 3.26 0.38 4.65 C0.38 6.04 1.51 7.17 2.9 7.17 C3.53 7.17 4.1 6.94 4.55 6.56 L4.55 6.56 Z M4.55 4.65 C4.55 5.55 3.81 6.29 2.9 6.29 C2 6.29 1.26 5.55 1.26 4.65 C1.26 3.75 2 3 2.9 3 C3.81 3 4.55 3.75 4.55 4.65 Z"/>
  <path id="GlBelgika-8th37" d="M4.17 8.43 C4.17 8.04 4.48 7.73 4.87 7.73 C5.26 7.73 5.57 8.04 5.57 8.43 C5.57 8.82 5.26 9.13 4.87 9.13 C4.48 9.13 4.17 8.82 4.17 8.43 L4.17 8.43 Z M3.3 8.43 C3.3 9.3 4 10 4.87 10 C5.74 10 6.45 9.3 6.45 8.43 C6.45 7.56 5.74 6.85 4.87 6.85 C4 6.85 3.3 7.56 3.3 8.43 L3.3 8.43 Z M1.9 3.7 C1.9 3.32 2.21 3 2.6 3 C2.98 3 3.3 3.32 3.3 3.7 C3.3 4.09 2.98 4.4 2.6 4.4 C2.21 4.4 1.9 4.09 1.9 3.7 L1.9 3.7 Z M1.02 3.7 C1.02 4.58 1.72 5.28 2.6 5.28 C3.47 5.28 4.17 4.58 4.17 3.7 C4.17 2.83 3.47 2.13 2.6 2.13 C1.72 2.13 1.02 2.83 1.02 3.7 L1.02 3.7 Z M6.25 2.2 C6.17 2.15 6.09 2.13 6.01 2.13 C5.87 2.13 5.72 2.2 5.64 2.33 L1.09 9.33 C1.04 9.4 1.02 9.48 1.02 9.56 C1.02 9.71 1.09 9.85 1.22 9.93 C1.29 9.98 1.37 10 1.45 10 C1.6 10 1.74 9.93 1.82 9.81 L6.37 2.81 C6.42 2.73 6.44 2.65 6.44 2.57 C6.44 2.43 6.37 2.28 6.25 2.2 Z"/>
  <path id="GlBelgika-8th77" d="M1.02 2.57 L1.02 9.57 C1.02 9.81 1.22 10 1.46 10 C1.7 10 1.9 9.81 1.9 9.57 L1.9 4.41 L4.58 9.76 C4.61 9.81 4.63 9.84 4.67 9.88 C4.7 9.91 4.74 9.94 4.78 9.96 C4.84 9.99 4.91 10 4.98 10 C5.04 10 5.11 9.99 5.17 9.96 C5.21 9.94 5.25 9.91 5.28 9.88 C5.32 9.84 5.34 9.81 5.37 9.76 L8.04 4.42 L8.04 9.57 C8.04 9.81 8.24 10 8.48 10 C8.71 10 8.91 9.81 8.91 9.57 L8.91 2.57 C8.91 2.48 8.89 2.41 8.85 2.34 C8.8 2.27 8.75 2.21 8.67 2.18 C8.64 2.16 8.61 2.15 8.58 2.14 C8.54 2.13 8.51 2.13 8.48 2.13 C8.39 2.13 8.31 2.15 8.25 2.2 C8.18 2.24 8.12 2.3 8.08 2.37 L4.97 8.59 L1.85 2.38 C1.78 2.23 1.63 2.13 1.46 2.13 C1.22 2.13 1.02 2.33 1.02 2.57 Z"/>
  <path id="GlBelgika-8th65" d="M2.2 6.75 L3.19 3.9 C3.45 4.66 3.81 5.68 4.18 6.75 L2.2 6.75 L2.2 6.75 Z M3.6 2.42 C3.58 2.35 3.53 2.28 3.47 2.23 C3.43 2.2 3.38 2.17 3.33 2.15 C3.31 2.15 3.29 2.14 3.27 2.14 C3.25 2.13 3.22 2.13 3.19 2.13 L3.19 2.13 C3.01 2.13 2.84 2.25 2.78 2.42 L0.34 9.42 C0.33 9.47 0.32 9.52 0.32 9.56 C0.32 9.75 0.43 9.92 0.61 9.98 C0.66 10 0.71 10 0.75 10 C0.94 10 1.11 9.89 1.17 9.71 L1.9 7.62 L4.49 7.62 C4.74 8.35 4.99 9.07 5.22 9.71 C5.28 9.89 5.45 10 5.63 10 C5.68 10 5.73 10 5.78 9.98 C5.95 9.92 6.07 9.75 6.07 9.56 C6.07 9.52 6.06 9.47 6.04 9.42 C5.11 6.75 3.66 2.57 3.6 2.42 Z"/>
  <path id="GlBelgika-8th76" d="M1.46 2.13 C1.22 2.13 1.02 2.33 1.02 2.57 L1.02 9.57 C1.02 9.83 1.27 10 1.46 10 L5.66 10 C5.9 10 6.1 9.81 6.1 9.57 C6.1 9.33 5.9 9.13 5.66 9.13 L1.9 9.13 L1.9 2.57 C1.9 2.33 1.7 2.13 1.46 2.13 Z"/>
  <path id="GlBelgika-8th69" d="M5.75 2.57 C5.75 2.33 5.55 2.13 5.31 2.13 L1.46 2.13 C1.19 2.13 1.02 2.38 1.02 2.57 L1.02 6.07 L1.02 9.57 C1.02 9.83 1.27 10 1.46 10 L5.31 10 C5.55 10 5.75 9.81 5.75 9.57 C5.75 9.33 5.55 9.13 5.31 9.13 L1.9 9.13 L1.9 6.5 L4.61 6.5 C4.85 6.5 5.05 6.31 5.05 6.07 C5.05 5.83 4.85 5.63 4.61 5.63 L1.9 5.63 L1.9 3 L5.31 3 C5.55 3 5.75 2.81 5.75 2.57 Z"/>
  <path id="GlBelgika-8th120" d="M1.04 9.93 C1.11 9.98 1.2 10 1.28 10 C1.42 10 1.56 9.93 1.65 9.81 L3.59 6.86 L5.54 9.81 C5.62 9.93 5.76 10 5.91 10 C5.99 10 6.07 9.98 6.14 9.93 C6.27 9.85 6.34 9.71 6.34 9.56 C6.34 9.48 6.32 9.4 6.27 9.33 L4.12 6.07 L6.27 2.81 C6.32 2.74 6.34 2.65 6.34 2.57 C6.34 2.43 6.27 2.29 6.14 2.2 C6.07 2.15 5.99 2.13 5.91 2.13 C5.76 2.13 5.62 2.2 5.54 2.33 L3.59 5.27 L1.65 2.33 C1.56 2.2 1.42 2.13 1.28 2.13 C1.2 2.13 1.11 2.15 1.04 2.2 C0.92 2.29 0.85 2.43 0.85 2.57 C0.85 2.65 0.87 2.74 0.92 2.81 L3.07 6.07 L0.92 9.33 C0.87 9.4 0.85 9.48 0.85 9.56 C0.85 9.71 0.92 9.85 1.04 9.93 Z"/>
 </defs>
 <g id="Fond de page">
  <path style="fill:#161413; fill-rule:evenodd;stroke:#161413; stroke-width:6; stroke-linecap:butt; stroke-linejoin:miter; stroke-dasharray:none;" d="M317.5 158.75 C317.5 246.428 246.428 317.5 158.75 317.5 C71.0748 317.5 0 246.428 0 158.75 C0 71.0748 71.0748 0 158.75 0 C246.428 0 317.5 71.0748 317.5 158.75 Z" transform="translate(138.5, 270.73)"/>
  <path style="fill:#ffffff; fill-rule:evenodd;stroke:#161413; stroke-width:3; stroke-linecap:butt; stroke-linejoin:miter; stroke-dasharray:none;" d="M110.203 34.9074 C110.203 34.9074 18 164.25 15.5 161.625 L0 4.25 C39.5 0 80.25 11 110.203 34.9074 Z" transform="translate(281.797, 266.23)"/>
  <path style="stroke:#161413; stroke-width:4; stroke-linecap:butt; stroke-linejoin:miter; stroke-dasharray:none;" d="M 0 0 L 157.938 0" transform="translate(300.188, 426.918) rotate(269.932)"/>
  <g transform="translate(187, 43)">
   <use style="fill:#161413;stroke:none;" xlink:href="#GlBelgika-8th101" transform="matrix(2 0 0 2 25.165 -4.26)"/>
   <use style="fill:#161413;stroke:none;" xlink:href="#GlBelgika-8th100" transform="matrix(2 0 0 2 37.825 -4.26)"/>
   <use style="fill:#161413;stroke:none;" xlink:href="#GlBelgika-8th105" transform="matrix(2 0 0 2 53.445 -4.26)"/>
   <use style="fill:#161413;stroke:none;" xlink:href="#GlBelgika-8th116" transform="matrix(2 0 0 2 59.705 -4.26)"/>
   <use style="fill:#161413;stroke:none;" xlink:href="#GlBelgika-8th111" transform="matrix(2 0 0 2 72.545 -4.26)"/>
   <use style="fill:#161413;stroke:none;" xlink:href="#GlBelgika-8th114" transform="matrix(2 0 0 2 90.985 -4.26)"/>
   <use style="fill:#161413;stroke:none;" xlink:href="#GlBelgika-8th115" transform="matrix(2 0 0 2 112.125 -4.26)"/>
   <use style="fill:#161413;stroke:none;" xlink:href="#GlBelgika-8th117" transform="matrix(2 0 0 2 123.225 -4.26)"/>
   <use style="fill:#161413;stroke:none;" xlink:href="#GlBelgika-8th114" transform="matrix(2 0 0 2 139.565 -4.26)"/>
   <use style="fill:#161413;stroke:none;" xlink:href="#GlBelgika-8th118" transform="matrix(2 0 0 2 151.705 -4.26)"/>
   <use style="fill:#161413;stroke:none;" xlink:href="#GlBelgika-8th101" transform="matrix(2 0 0 2 165.245 -4.26)"/>
   <use style="fill:#161413;stroke:none;" xlink:href="#GlBelgika-8th121" transform="matrix(2 0 0 2 177.905 -4.26)"/>
   <use style="fill:#161413;stroke:none;" xlink:href="#GlBelgika-8th99" transform="matrix(2 0 0 2 24.735 21.3)"/>
   <use style="fill:#161413;stroke:none;" xlink:href="#GlBelgika-8th111" transform="matrix(2 0 0 2 39.095 21.3)"/>
   <use style="fill:#161413;stroke:none;" xlink:href="#GlBelgika-8th110" transform="matrix(2 0 0 2 57.535 21.3)"/>
   <use style="fill:#161413;stroke:none;" xlink:href="#GlBelgika-8th100" transform="matrix(2 0 0 2 73.175 21.3)"/>
   <use style="fill:#161413;stroke:none;" xlink:href="#GlBelgika-8th117" transform="matrix(2 0 0 2 88.795 21.3)"/>
   <use style="fill:#161413;stroke:none;" xlink:href="#GlBelgika-8th99" transform="matrix(2 0 0 2 105.135 21.3)"/>
   <use style="fill:#161413;stroke:none;" xlink:href="#GlBelgika-8th116" transform="matrix(2 0 0 2 119.495 21.3)"/>
   <use style="fill:#161413;stroke:none;" xlink:href="#GlBelgika-8th101" transform="matrix(2 0 0 2 132.335 21.3)"/>
   <use style="fill:#161413;stroke:none;" xlink:href="#GlBelgika-8th100" transform="matrix(2 0 0 2 144.995 21.3)"/>
   <use style="fill:#161413;stroke:none;" xlink:href="#GlBelgika-8th105" transform="matrix(2 0 0 2 169.615 21.3)"/>
   <use style="fill:#161413;stroke:none;" xlink:href="#GlBelgika-8th110" transform="matrix(2 0 0 2 175.875 21.3)"/>
   <use style="fill:#161413;stroke:none;" xlink:href="#GlBelgika-8th68" transform="matrix(2 0 0 2 23.795 46.86)"/>
   <use style="fill:#161413;stroke:none;" xlink:href="#GlBelgika-8th101" transform="matrix(2 0 0 2 39.415 46.86)"/>
   <use style="fill:#161413;stroke:none;" xlink:href="#GlBelgika-8th99" transform="matrix(2 0 0 2 52.075 46.86)"/>
   <use style="fill:#161413;stroke:none;" xlink:href="#GlBelgika-8th101" transform="matrix(2 0 0 2 66.435 46.86)"/>
   <use style="fill:#161413;stroke:none;" xlink:href="#GlBelgika-8th109" transform="matrix(2 0 0 2 79.095 46.86)"/>
   <use style="fill:#161413;stroke:none;" xlink:href="#GlBelgika-8th98" transform="matrix(2 0 0 2 98.975 46.86)"/>
   <use style="fill:#161413;stroke:none;" xlink:href="#GlBelgika-8th101" transform="matrix(2 0 0 2 112.175 46.86)"/>
   <use style="fill:#161413;stroke:none;" xlink:href="#GlBelgika-8th114" transform="matrix(2 0 0 2 124.835 46.86)"/>
   <use style="fill:#161413;stroke:none;" xlink:href="#GlBelgika-8th50" transform="matrix(2 0 0 2 145.975 46.86)"/>
   <use style="fill:#161413;stroke:none;" xlink:href="#GlBelgika-8th48" transform="matrix(2 0 0 2 157.595 46.86)"/>
   <use style="fill:#161413;stroke:none;" xlink:href="#GlBelgika-8th49" transform="matrix(2 0 0 2 169.215 46.86)"/>
   <use style="fill:#161413;stroke:none;" xlink:href="#GlBelgika-8th49" transform="matrix(2 0 0 2 180.835 46.86)"/>
   <path style="fill:none; stroke:none;" d="M0 0 L217 0 L217 133 L0 133 L0 0 Z"/>
  </g>
  <g transform="translate(23, 777)">
   <use style="fill:#161413;stroke:none;" xlink:href="#GlBelgika-8th104" transform="matrix(1.6 0 0 1.6 89.677 -3.408)"/>
   <use style="fill:#161413;stroke:none;" xlink:href="#GlBelgika-8th116" transform="matrix(1.6 0 0 1.6 101.069 -3.408)"/>
   <use style="fill:#161413;stroke:none;" xlink:href="#GlBelgika-8th116" transform="matrix(1.6 0 0 1.6 111.341 -3.408)"/>
   <use style="fill:#161413;stroke:none;" xlink:href="#GlBelgika-8th112" transform="matrix(1.6 0 0 1.6 121.613 -3.408)"/>
   <use style="fill:#161413;stroke:none;" xlink:href="#GlBelgika-8th58" transform="matrix(1.6 0 0 1.6 132.141 -3.408)"/>
   <use style="fill:#161413;stroke:none;" xlink:href="#GlBelgika-8th47" transform="matrix(1.6 0 0 1.6 136.813 -3.408)"/>
   <use style="fill:#161413;stroke:none;" xlink:href="#GlBelgika-8th47" transform="matrix(1.6 0 0 1.6 145.053 -3.408)"/>
   <use style="fill:#161413;stroke:none;" xlink:href="#GlBelgika-8th98" transform="matrix(1.6 0 0 1.6 153.293 -3.408)"/>
   <use style="fill:#161413;stroke:none;" xlink:href="#GlBelgika-8th108" transform="matrix(1.6 0 0 1.6 163.853 -3.408)"/>
   <use style="fill:#161413;stroke:none;" xlink:href="#GlBelgika-8th111" transform="matrix(1.6 0 0 1.6 174.125 -3.408)"/>
   <use style="fill:#161413;stroke:none;" xlink:href="#GlBelgika-8th103" transform="matrix(1.6 0 0 1.6 188.877 -3.408)"/>
   <use style="fill:#161413;stroke:none;" xlink:href="#GlBelgika-8th46" transform="matrix(1.6 0 0 1.6 202.269 -3.408)"/>
   <use style="fill:#161413;stroke:none;" xlink:href="#GlBelgika-8th119" transform="matrix(1.6 0 0 1.6 206.973 -3.408)"/>
   <use style="fill:#161413;stroke:none;" xlink:href="#GlBelgika-8th105" transform="matrix(1.6 0 0 1.6 223.037 -3.408)"/>
   <use style="fill:#161413;stroke:none;" xlink:href="#GlBelgika-8th107" transform="matrix(1.6 0 0 1.6 228.045 -3.408)"/>
   <use style="fill:#161413;stroke:none;" xlink:href="#GlBelgika-8th105" transform="matrix(1.6 0 0 1.6 238.317 -3.408)"/>
   <use style="fill:#161413;stroke:none;" xlink:href="#GlBelgika-8th109" transform="matrix(1.6 0 0 1.6 243.325 -3.408)"/>
   <use style="fill:#161413;stroke:none;" xlink:href="#GlBelgika-8th101" transform="matrix(1.6 0 0 1.6 259.229 -3.408)"/>
   <use style="fill:#161413;stroke:none;" xlink:href="#GlBelgika-8th100" transform="matrix(1.6 0 0 1.6 269.357 -3.408)"/>
   <use style="fill:#161413;stroke:none;" xlink:href="#GlBelgika-8th105" transform="matrix(1.6 0 0 1.6 281.853 -3.408)"/>
   <use style="fill:#161413;stroke:none;" xlink:href="#GlBelgika-8th97" transform="matrix(1.6 0 0 1.6 286.861 -3.408)"/>
   <use style="fill:#161413;stroke:none;" xlink:href="#GlBelgika-8th46" transform="matrix(1.6 0 0 1.6 297.085 -3.408)"/>
   <use style="fill:#161413;stroke:none;" xlink:href="#GlBelgika-8th111" transform="matrix(1.6 0 0 1.6 301.789 -3.408)"/>
   <use style="fill:#161413;stroke:none;" xlink:href="#GlBelgika-8th114" transform="matrix(1.6 0 0 1.6 316.541 -3.408)"/>
   <use style="fill:#161413;stroke:none;" xlink:href="#GlBelgika-8th103" transform="matrix(1.6 0 0 1.6 326.253 -3.408)"/>
   <use style="fill:#161413;stroke:none;" xlink:href="#GlBelgika-8th47" transform="matrix(1.6 0 0 1.6 339.645 -3.408)"/>
   <use style="fill:#161413;stroke:none;" xlink:href="#GlBelgika-8th50" transform="matrix(1.6 0 0 1.6 347.885 -3.408)"/>
   <use style="fill:#161413;stroke:none;" xlink:href="#GlBelgika-8th48" transform="matrix(1.6 0 0 1.6 357.181 -3.408)"/>
   <use style="fill:#161413;stroke:none;" xlink:href="#GlBelgika-8th49" transform="matrix(1.6 0 0 1.6 366.477 -3.408)"/>
   <use style="fill:#161413;stroke:none;" xlink:href="#GlBelgika-8th50" transform="matrix(1.6 0 0 1.6 375.773 -3.408)"/>
   <use style="fill:#161413;stroke:none;" xlink:href="#GlBelgika-8th47" transform="matrix(1.6 0 0 1.6 385.069 -3.408)"/>
   <use style="fill:#161413;stroke:none;" xlink:href="#GlBelgika-8th48" transform="matrix(1.6 0 0 1.6 393.309 -3.408)"/>
   <use style="fill:#161413;stroke:none;" xlink:href="#GlBelgika-8th52" transform="matrix(1.6 0 0 1.6 402.605 -3.408)"/>
   <use style="fill:#161413;stroke:none;" xlink:href="#GlBelgika-8th47" transform="matrix(1.6 0 0 1.6 411.901 -3.408)"/>
   <use style="fill:#161413;stroke:none;" xlink:href="#GlBelgika-8th50" transform="matrix(1.6 0 0 1.6 420.141 -3.408)"/>
   <use style="fill:#161413;stroke:none;" xlink:href="#GlBelgika-8th55" transform="matrix(1.6 0 0 1.6 429.437 -3.408)"/>
   <use style="fill:#161413;stroke:none;" xlink:href="#GlBelgika-8th47" transform="matrix(1.6 0 0 1.6 438.733 -3.408)"/>
   <use style="fill:#161413;stroke:none;" xlink:href="#GlBelgika-8th110" transform="matrix(1.6 0 0 1.6 31.853 17.04)"/>
   <use style="fill:#161413;stroke:none;" xlink:href="#GlBelgika-8th105" transform="matrix(1.6 0 0 1.6 44.365 17.04)"/>
   <use style="fill:#161413;stroke:none;" xlink:href="#GlBelgika-8th110" transform="matrix(1.6 0 0 1.6 49.373 17.04)"/>
   <use style="fill:#161413;stroke:none;" xlink:href="#GlBelgika-8th101" transform="matrix(1.6 0 0 1.6 61.885 17.04)"/>
   <use style="fill:#161413;stroke:none;" xlink:href="#GlBelgika-8th45" transform="matrix(1.6 0 0 1.6 72.013 17.04)"/>
   <use style="fill:#161413;stroke:none;" xlink:href="#GlBelgika-8th111" transform="matrix(1.6 0 0 1.6 80.365 17.04)"/>
   <use style="fill:#161413;stroke:none;" xlink:href="#GlBelgika-8th117" transform="matrix(1.6 0 0 1.6 95.117 17.04)"/>
   <use style="fill:#161413;stroke:none;" xlink:href="#GlBelgika-8th116" transform="matrix(1.6 0 0 1.6 108.189 17.04)"/>
   <use style="fill:#161413;stroke:none;" xlink:href="#GlBelgika-8th45" transform="matrix(1.6 0 0 1.6 118.461 17.04)"/>
   <use style="fill:#161413;stroke:none;" xlink:href="#GlBelgika-8th111" transform="matrix(1.6 0 0 1.6 126.813 17.04)"/>
   <use style="fill:#161413;stroke:none;" xlink:href="#GlBelgika-8th102" transform="matrix(1.6 0 0 1.6 141.565 17.04)"/>
   <use style="fill:#161413;stroke:none;" xlink:href="#GlBelgika-8th45" transform="matrix(1.6 0 0 1.6 151.005 17.04)"/>
   <use style="fill:#161413;stroke:none;" xlink:href="#GlBelgika-8th116" transform="matrix(1.6 0 0 1.6 159.357 17.04)"/>
   <use style="fill:#161413;stroke:none;" xlink:href="#GlBelgika-8th101" transform="matrix(1.6 0 0 1.6 169.629 17.04)"/>
   <use style="fill:#161413;stroke:none;" xlink:href="#GlBelgika-8th110" transform="matrix(1.6 0 0 1.6 179.757 17.04)"/>
   <use style="fill:#161413;stroke:none;" xlink:href="#GlBelgika-8th45" transform="matrix(1.6 0 0 1.6 192.269 17.04)"/>
   <use style="fill:#161413;stroke:none;" xlink:href="#GlBelgika-8th119" transform="matrix(1.6 0 0 1.6 200.621 17.04)"/>
   <use style="fill:#161413;stroke:none;" xlink:href="#GlBelgika-8th105" transform="matrix(1.6 0 0 1.6 216.685 17.04)"/>
   <use style="fill:#161413;stroke:none;" xlink:href="#GlBelgika-8th107" transform="matrix(1.6 0 0 1.6 221.693 17.04)"/>
   <use style="fill:#161413;stroke:none;" xlink:href="#GlBelgika-8th105" transform="matrix(1.6 0 0 1.6 231.965 17.04)"/>
   <use style="fill:#161413;stroke:none;" xlink:href="#GlBelgika-8th112" transform="matrix(1.6 0 0 1.6 236.973 17.04)"/>
   <use style="fill:#161413;stroke:none;" xlink:href="#GlBelgika-8th101" transform="matrix(1.6 0 0 1.6 247.501 17.04)"/>
   <use style="fill:#161413;stroke:none;" xlink:href="#GlBelgika-8th100" transform="matrix(1.6 0 0 1.6 257.629 17.04)"/>
   <use style="fill:#161413;stroke:none;" xlink:href="#GlBelgika-8th105" transform="matrix(1.6 0 0 1.6 270.125 17.04)"/>
   <use style="fill:#161413;stroke:none;" xlink:href="#GlBelgika-8th97" transform="matrix(1.6 0 0 1.6 275.133 17.04)"/>
   <use style="fill:#161413;stroke:none;" xlink:href="#GlBelgika-8th110" transform="matrix(1.6 0 0 1.6 285.357 17.04)"/>
   <use style="fill:#161413;stroke:none;" xlink:href="#GlBelgika-8th115" transform="matrix(1.6 0 0 1.6 297.869 17.04)"/>
   <use style="fill:#161413;stroke:none;" xlink:href="#GlBelgika-8th45" transform="matrix(1.6 0 0 1.6 306.749 17.04)"/>
   <use style="fill:#161413;stroke:none;" xlink:href="#GlBelgika-8th99" transform="matrix(1.6 0 0 1.6 315.101 17.04)"/>
   <use style="fill:#161413;stroke:none;" xlink:href="#GlBelgika-8th111" transform="matrix(1.6 0 0 1.6 326.589 17.04)"/>
   <use style="fill:#161413;stroke:none;" xlink:href="#GlBelgika-8th110" transform="matrix(1.6 0 0 1.6 341.341 17.04)"/>
   <use style="fill:#161413;stroke:none;" xlink:href="#GlBelgika-8th116" transform="matrix(1.6 0 0 1.6 353.853 17.04)"/>
   <use style="fill:#161413;stroke:none;" xlink:href="#GlBelgika-8th105" transform="matrix(1.6 0 0 1.6 364.125 17.04)"/>
   <use style="fill:#161413;stroke:none;" xlink:href="#GlBelgika-8th110" transform="matrix(1.6 0 0 1.6 369.133 17.04)"/>
   <use style="fill:#161413;stroke:none;" xlink:href="#GlBelgika-8th117" transform="matrix(1.6 0 0 1.6 381.645 17.04)"/>
   <use style="fill:#161413;stroke:none;" xlink:href="#GlBelgika-8th101" transform="matrix(1.6 0 0 1.6 394.717 17.04)"/>
   <use style="fill:#161413;stroke:none;" xlink:href="#GlBelgika-8th45" transform="matrix(1.6 0 0 1.6 404.845 17.04)"/>
   <use style="fill:#161413;stroke:none;" xlink:href="#GlBelgika-8th116" transform="matrix(1.6 0 0 1.6 413.197 17.04)"/>
   <use style="fill:#161413;stroke:none;" xlink:href="#GlBelgika-8th111" transform="matrix(1.6 0 0 1.6 423.469 17.04)"/>
   <use style="fill:#161413;stroke:none;" xlink:href="#GlBelgika-8th45" transform="matrix(1.6 0 0 1.6 438.221 17.04)"/>
   <use style="fill:#161413;stroke:none;" xlink:href="#GlBelgika-8th98" transform="matrix(1.6 0 0 1.6 446.573 17.04)"/>
   <use style="fill:#161413;stroke:none;" xlink:href="#GlBelgika-8th101" transform="matrix(1.6 0 0 1.6 457.133 17.04)"/>
   <use style="fill:#161413;stroke:none;" xlink:href="#GlBelgika-8th45" transform="matrix(1.6 0 0 1.6 467.261 17.04)"/>
   <use style="fill:#161413;stroke:none;" xlink:href="#GlBelgika-8th109" transform="matrix(1.6 0 0 1.6 475.613 17.04)"/>
   <use style="fill:#161413;stroke:none;" xlink:href="#GlBelgika-8th101" transform="matrix(1.6 0 0 1.6 491.517 17.04)"/>
   <use style="fill:#161413;stroke:none;" xlink:href="#GlBelgika-8th110" transform="matrix(1.6 0 0 1.6 501.645 17.04)"/>
   <use style="fill:#161413;stroke:none;" xlink:href="#GlBelgika-8th47" transform="matrix(1.6 0 0 1.6 514.157 17.04)"/>
   <path style="fill:none; stroke:none;" d="M0 0 L555 0 L555 48.98 L0 48.98 L0 0 Z"/>
  </g>
  <g transform="translate(77, 179)">
   <use style="fill:#161413;stroke:none;" xlink:href="#GlBelgika-8th87" transform="matrix(2 0 0 2 91.055 -4.26)"/>
   <use style="fill:#161413;stroke:none;" xlink:href="#GlBelgika-8th104" transform="matrix(2 0 0 2 111.135 -4.26)"/>
   <use style="fill:#161413;stroke:none;" xlink:href="#GlBelgika-8th97" transform="matrix(2 0 0 2 125.375 -4.26)"/>
   <use style="fill:#161413;stroke:none;" xlink:href="#GlBelgika-8th116" transform="matrix(2 0 0 2 138.155 -4.26)"/>
   <use style="fill:#161413;stroke:none;" xlink:href="#GlBelgika-8th105" transform="matrix(2 0 0 2 159.995 -4.26)"/>
   <use style="fill:#161413;stroke:none;" xlink:href="#GlBelgika-8th115" transform="matrix(2 0 0 2 166.255 -4.26)"/>
   <use style="fill:#161413;stroke:none;" xlink:href="#GlBelgika-8th121" transform="matrix(2 0 0 2 186.355 -4.26)"/>
   <use style="fill:#161413;stroke:none;" xlink:href="#GlBelgika-8th111" transform="matrix(2 0 0 2 199.535 -4.26)"/>
   <use style="fill:#161413;stroke:none;" xlink:href="#GlBelgika-8th117" transform="matrix(2 0 0 2 217.975 -4.26)"/>
   <use style="fill:#161413;stroke:none;" xlink:href="#GlBelgika-8th114" transform="matrix(2 0 0 2 234.315 -4.26)"/>
   <use style="fill:#161413;stroke:none;" xlink:href="#GlBelgika-8th103" transform="matrix(2 0 0 2 255.455 -4.26)"/>
   <use style="fill:#161413;stroke:none;" xlink:href="#GlBelgika-8th101" transform="matrix(2 0 0 2 272.195 -4.26)"/>
   <use style="fill:#161413;stroke:none;" xlink:href="#GlBelgika-8th110" transform="matrix(2 0 0 2 284.855 -4.26)"/>
   <use style="fill:#161413;stroke:none;" xlink:href="#GlBelgika-8th100" transform="matrix(2 0 0 2 300.495 -4.26)"/>
   <use style="fill:#161413;stroke:none;" xlink:href="#GlBelgika-8th101" transform="matrix(2 0 0 2 316.115 -4.26)"/>
   <use style="fill:#161413;stroke:none;" xlink:href="#GlBelgika-8th114" transform="matrix(2 0 0 2 328.775 -4.26)"/>
   <use style="fill:#161413;stroke:none;" xlink:href="#GlBelgika-8th63" transform="matrix(2 0 0 2 340.915 -4.26)"/>
   <path style="fill:none; stroke:none;" d="M0 0 L444 0 L444 58.98 L0 58.98 L0 0 Z"/>
  </g>
  <g id="Groupe 5" clip-path="url(#Clip0)">
   <g transform="translate(-175.75, 611)">
    <use style="fill:#161413;stroke:none;" xlink:href="#GlBelgika-8th57" transform="matrix(2 0 0 2 224.07 -4.26)"/>
    <use style="fill:#161413;stroke:none;" xlink:href="#GlBelgika-8th48" transform="matrix(2 0 0 2 235.69 -4.26)"/>
    <use style="fill:#161413;stroke:none;" xlink:href="#GlBelgika-8th37" transform="matrix(2 0 0 2 247.31 -4.26)"/>
    <use style="fill:#161413;stroke:none;" xlink:href="#GlBelgika-8th57" transform="matrix(2 0 0 2 235.69 21.3)"/>
    <use style="fill:#161413;stroke:none;" xlink:href="#GlBelgika-8th37" transform="matrix(2 0 0 2 247.31 21.3)"/>
    <use style="fill:#161413;stroke:none;" xlink:href="#GlBelgika-8th49" transform="matrix(2 0 0 2 235.69 46.86)"/>
    <use style="fill:#161413;stroke:none;" xlink:href="#GlBelgika-8th37" transform="matrix(2 0 0 2 247.31 46.86)"/>
    <path style="fill:none; stroke:none;" d="M0 0 L284.75 0 L284.75 103.48 L0 103.48 L0 0 Z"/>
   </g>
   <g transform="translate(98, 612)">
    <use style="fill:#161413;stroke:none;" xlink:href="#GlBelgika-8th77" transform="matrix(2 0 0 2 0 -4.26)"/>
    <use style="fill:#161413;stroke:none;" xlink:href="#GlBelgika-8th65" transform="matrix(2 0 0 2 19.88 -4.26)"/>
    <use style="fill:#161413;stroke:none;" xlink:href="#GlBelgika-8th76" transform="matrix(2 0 0 2 32.66 -4.26)"/>
    <use style="fill:#161413;stroke:none;" xlink:href="#GlBelgika-8th69" transform="matrix(2 0 0 2 45.5 -4.26)"/>
    <use style="fill:#161413;stroke:none;" xlink:href="#GlBelgika-8th102" transform="matrix(2 0 0 2 0 21.3)"/>
    <use style="fill:#161413;stroke:none;" xlink:href="#GlBelgika-8th101" transform="matrix(2 0 0 2 11.8 21.3)"/>
    <use style="fill:#161413;stroke:none;" xlink:href="#GlBelgika-8th109" transform="matrix(2 0 0 2 24.46 21.3)"/>
    <use style="fill:#161413;stroke:none;" xlink:href="#GlBelgika-8th97" transform="matrix(2 0 0 2 44.34 21.3)"/>
    <use style="fill:#161413;stroke:none;" xlink:href="#GlBelgika-8th108" transform="matrix(2 0 0 2 57.12 21.3)"/>
    <use style="fill:#161413;stroke:none;" xlink:href="#GlBelgika-8th101" transform="matrix(2 0 0 2 69.96 21.3)"/>
    <use style="fill:#161413;stroke:none;" xlink:href="#GlBelgika-8th116" transform="matrix(2 0 0 2 0 46.86)"/>
    <use style="fill:#161413;stroke:none;" xlink:href="#GlBelgika-8th114" transform="matrix(2 0 0 2 12.84 46.86)"/>
    <use style="fill:#161413;stroke:none;" xlink:href="#GlBelgika-8th97" transform="matrix(2 0 0 2 24.98 46.86)"/>
    <use style="fill:#161413;stroke:none;" xlink:href="#GlBelgika-8th110" transform="matrix(2 0 0 2 37.76 46.86)"/>
    <use style="fill:#161413;stroke:none;" xlink:href="#GlBelgika-8th103" transform="matrix(2 0 0 2 53.4 46.86)"/>
    <use style="fill:#161413;stroke:none;" xlink:href="#GlBelgika-8th101" transform="matrix(2 0 0 2 70.14 46.86)"/>
    <use style="fill:#161413;stroke:none;" xlink:href="#GlBelgika-8th110" transform="matrix(2 0 0 2 82.8 46.86)"/>
    <use style="fill:#161413;stroke:none;" xlink:href="#GlBelgika-8th100" transform="matrix(2 0 0 2 98.44 46.86)"/>
    <use style="fill:#161413;stroke:none;" xlink:href="#GlBelgika-8th101" transform="matrix(2 0 0 2 114.06 46.86)"/>
    <use style="fill:#161413;stroke:none;" xlink:href="#GlBelgika-8th114" transform="matrix(2 0 0 2 126.72 46.86)"/>
    <use style="fill:#161413;stroke:none;" xlink:href="#GlBelgika-8th47" transform="matrix(2 0 0 2 138.86 46.86)"/>
    <use style="fill:#161413;stroke:none;" xlink:href="#GlBelgika-8th116" transform="matrix(2 0 0 2 149.16 46.86)"/>
    <use style="fill:#161413;stroke:none;" xlink:href="#GlBelgika-8th114" transform="matrix(2 0 0 2 162 46.86)"/>
    <use style="fill:#161413;stroke:none;" xlink:href="#GlBelgika-8th97" transform="matrix(2 0 0 2 174.14 46.86)"/>
    <use style="fill:#161413;stroke:none;" xlink:href="#GlBelgika-8th110" transform="matrix(2 0 0 2 186.92 46.86)"/>
    <use style="fill:#161413;stroke:none;" xlink:href="#GlBelgika-8th115" transform="matrix(2 0 0 2 202.56 46.86)"/>
    <use style="fill:#161413;stroke:none;" xlink:href="#GlBelgika-8th101" transform="matrix(2 0 0 2 213.66 46.86)"/>
    <use style="fill:#161413;stroke:none;" xlink:href="#GlBelgika-8th120" transform="matrix(2 0 0 2 226.32 46.86)"/>
    <use style="fill:#161413;stroke:none;" xlink:href="#GlBelgika-8th117" transform="matrix(2 0 0 2 240.7 46.86)"/>
    <use style="fill:#161413;stroke:none;" xlink:href="#GlBelgika-8th97" transform="matrix(2 0 0 2 257.04 46.86)"/>
    <use style="fill:#161413;stroke:none;" xlink:href="#GlBelgika-8th108" transform="matrix(2 0 0 2 269.82 46.86)"/>
    <path style="fill:none; stroke:none;" d="M0 0 L300 0 L300 134.98 L0 134.98 L0 0 Z"/>
   </g>
  </g>
 </g>
</svg>
