<?xml version="1.0" encoding="UTF-8" standalone="no"?>
<!-- Created with Inkscape (http://www.inkscape.org/) -->

<svg
   xmlns:dc="http://purl.org/dc/elements/1.1/"
   xmlns:cc="http://creativecommons.org/ns#"
   xmlns:rdf="http://www.w3.org/1999/02/22-rdf-syntax-ns#"
   xmlns:svg="http://www.w3.org/2000/svg"
   xmlns="http://www.w3.org/2000/svg"
   xmlns:sodipodi="http://sodipodi.sourceforge.net/DTD/sodipodi-0.dtd"
   xmlns:inkscape="http://www.inkscape.org/namespaces/inkscape"
   width="378.59622mm"
   height="312.4559mm"
   viewBox="0 0 1341.4826 1107.1272"
   id="svg2"
   version="1.1"
   inkscape:version="0.91 r13725"
   sodipodi:docname="just-the-color.svg"
   inkscape:export-filename="/Users/loraine/Dropbox/PROJECTS/Just for the record/website-github/images/just-the-colors.png"
   inkscape:export-xdpi="95"
   inkscape:export-ydpi="95">
  <defs
     id="defs4" />
  <sodipodi:namedview
     id="base"
     pagecolor="#ffffff"
     bordercolor="#666666"
     borderopacity="1.0"
     inkscape:pageopacity="0.0"
     inkscape:pageshadow="2"
     inkscape:zoom="0.49497475"
     inkscape:cx="329.07287"
     inkscape:cy="621.14057"
     inkscape:document-units="px"
     inkscape:current-layer="layer6"
     showgrid="false"
     inkscape:window-width="1366"
     inkscape:window-height="724"
     inkscape:window-x="4"
     inkscape:window-y="1"
     inkscape:window-maximized="0"
     showguides="false"
     inkscape:guide-bbox="true"
     fit-margin-top="0"
     fit-margin-left="0"
     fit-margin-right="0"
     fit-margin-bottom="0">
    <sodipodi:guide
       position="-1004.4934,432.33196"
       orientation="1,0"
       id="guide4530" />
    <sodipodi:guide
       position="-902.46804,417.17966"
       orientation="1,0"
       id="guide4532" />
    <sodipodi:guide
       position="-779.22944,373.74316"
       orientation="1,0"
       id="guide4534" />
    <sodipodi:guide
       position="-657.00098,315.15427"
       orientation="1,0"
       id="guide4536" />
    <sodipodi:guide
       position="-4.0406101,-81.904655"
       orientation="1,0"
       id="guide4538" />
    <sodipodi:guide
       position="1345.6022,-107.97608"
       orientation="1,0"
       id="guide4540" />
    <sodipodi:guide
       position="1185.2834,193.22852"
       orientation="1,0"
       id="guide4931" />
    <sodipodi:guide
       position="951.56366,-68.69037"
       orientation="1,0"
       id="guide4935" />
    <sodipodi:guide
       position="670.23618,-80.8122"
       orientation="1,0"
       id="guide4937" />
    <sodipodi:guide
       position="388.81651,-68.69037"
       orientation="1,0"
       id="guide4939" />
    <sodipodi:guide
       position="155.99773,193.22852"
       orientation="1,0"
       id="guide4941" />
    <sodipodi:guide
       position="155.99773,-68.69037"
       orientation="0,1"
       id="guide3368" />
    <sodipodi:guide
       position="951.56366,-68.69037"
       orientation="0,1"
       id="guide3379" />
    <sodipodi:guide
       position="1273.1022,-831.54751"
       orientation="0,1"
       id="guide3381" />
    <sodipodi:guide
       position="763.67529,-1339.4623"
       orientation="0,1"
       id="guide3383" />
    <sodipodi:guide
       position="853.10221,-3525.8332"
       orientation="0,1"
       id="guide3407" />
    <sodipodi:guide
       position="1348.4273,-5721.1252"
       orientation="0,1"
       id="guide3431" />
  </sodipodi:namedview>
  <metadata
     id="metadata7">
    <rdf:RDF>
      <cc:Work
         rdf:about="">
        <dc:format>image/svg+xml</dc:format>
        <dc:type
           rdf:resource="http://purl.org/dc/dcmitype/StillImage" />
        <dc:title></dc:title>
      </cc:Work>
    </rdf:RDF>
  </metadata>
  <g
     inkscape:groupmode="layer"
     id="layer2"
     inkscape:label="Layer 2"
     style="display:inline"
     transform="translate(-4.0406103,257.67758)">
    <rect
       style="opacity:1;fill:#fefe52;fill-opacity:1;stroke:none;stroke-width:3.5;stroke-linecap:round;stroke-linejoin:miter;stroke-miterlimit:4;stroke-dasharray:none;stroke-dashoffset:0;stroke-opacity:1"
       id="rect3394"
       width="1448.5714"
       height="1323.1052"
       x="-48.571426"
       y="-373.53671" />
    <path
       style="opacity:1;fill:#00ffff;fill-opacity:1;stroke:none;stroke-width:3.5;stroke-linecap:round;stroke-linejoin:miter;stroke-miterlimit:4;stroke-dasharray:none;stroke-dashoffset:0;stroke-opacity:1"
       d="m 652.55854,29.205721 -37.37564,47.47717 -614.1727475,0 0,-50.507627 z"
       id="path4196"
       inkscape:connector-curvature="0" />
    <path
       inkscape:connector-curvature="0"
       id="path4198"
       d="m 695.97479,29.205721 37.49856,47.47717 616.19275,0 0,-50.507627 z"
       style="opacity:1;fill:#00ffff;fill-opacity:1;stroke:none;stroke-width:3.5;stroke-linecap:round;stroke-linejoin:miter;stroke-miterlimit:4;stroke-dasharray:none;stroke-dashoffset:0;stroke-opacity:1" />
    <path
       inkscape:connector-curvature="0"
       id="path4200"
       d="m 615.41568,76.348578 -56.66135,71.762882 -557.7441775,0 0,-73.364768 z"
       style="opacity:1;fill:#00ffff;fill-opacity:1;stroke:none;stroke-width:3.5;stroke-linecap:round;stroke-linejoin:miter;stroke-miterlimit:4;stroke-dasharray:none;stroke-dashoffset:0;stroke-opacity:1"
       sodipodi:nodetypes="ccccc" />
    <path
       sodipodi:nodetypes="ccccc"
       style="opacity:1;fill:#00ffff;fill-opacity:1;stroke:none;stroke-width:3.5;stroke-linecap:round;stroke-linejoin:miter;stroke-miterlimit:4;stroke-dasharray:none;stroke-dashoffset:0;stroke-opacity:1"
       d="m 558.44614,147.77715 -66.12038,84.62002 -491.3156075,0 0,-87.65047 z"
       id="path4202"
       inkscape:connector-curvature="0" />
    <path
       inkscape:connector-curvature="0"
       id="path4204"
       d="m 489.70139,235.77715 -87.37563,113.19145 -401.3156075,0 0,-116.2219 z"
       style="opacity:1;fill:#00ffff;fill-opacity:1;stroke:none;stroke-width:3.5;stroke-linecap:round;stroke-linejoin:miter;stroke-miterlimit:4;stroke-dasharray:none;stroke-dashoffset:0;stroke-opacity:1"
       sodipodi:nodetypes="ccccc" />
    <path
       sodipodi:nodetypes="ccccc"
       style="opacity:1;fill:#00ffff;fill-opacity:1;stroke:none;stroke-width:3.5;stroke-linecap:round;stroke-linejoin:miter;stroke-miterlimit:4;stroke-dasharray:none;stroke-dashoffset:0;stroke-opacity:1"
       d="m 396.76736,350.95484 -125.76143,162.68892 -269.9957775,0 0,-165.71937 z"
       id="path4206"
       inkscape:connector-curvature="0" />
    <path
       inkscape:connector-curvature="0"
       id="path4208"
       d="m 269.48814,516.61986 -159.09646,203.09502 -109.3815275,0 0,-206.12547 z"
       style="opacity:1;fill:#00ffff;fill-opacity:1;stroke:none;stroke-width:3.5;stroke-linecap:round;stroke-linejoin:miter;stroke-miterlimit:4;stroke-dasharray:none;stroke-dashoffset:0;stroke-opacity:1"
       sodipodi:nodetypes="ccccc" />
    <path
       inkscape:connector-curvature="0"
       id="path4210"
       d="m 674.5368,-0.06839751 -21.14142,27.27411951 -652.3852275,0 0,-27.2741189 z"
       style="opacity:1;fill:#00ffff;fill-opacity:1;stroke:none;stroke-width:3.5;stroke-linecap:round;stroke-linejoin:miter;stroke-miterlimit:4;stroke-dasharray:none;stroke-dashoffset:0;stroke-opacity:1"
       sodipodi:nodetypes="ccccc" />
    <path
       sodipodi:nodetypes="ccccc"
       style="opacity:1;fill:#00ffff;fill-opacity:1;stroke:none;stroke-width:3.5;stroke-linecap:round;stroke-linejoin:miter;stroke-miterlimit:4;stroke-dasharray:none;stroke-dashoffset:0;stroke-opacity:1"
       d="m 734.91317,76.348578 56.66134,71.762882 557.74419,0 0,-73.364768 z"
       id="path4212"
       inkscape:connector-curvature="0" />
    <path
       inkscape:connector-curvature="0"
       id="path4214"
       d="m 789.8624,147.77715 68.14068,84.62002 491.31562,0 0,-87.65047 z"
       style="opacity:1;fill:#00ffff;fill-opacity:1;stroke:none;stroke-width:3.5;stroke-linecap:round;stroke-linejoin:miter;stroke-miterlimit:4;stroke-dasharray:none;stroke-dashoffset:0;stroke-opacity:1"
       sodipodi:nodetypes="ccccc" />
    <path
       sodipodi:nodetypes="ccccc"
       style="opacity:1;fill:#00ffff;fill-opacity:1;stroke:none;stroke-width:3.5;stroke-linecap:round;stroke-linejoin:miter;stroke-miterlimit:4;stroke-dasharray:none;stroke-dashoffset:0;stroke-opacity:1"
       d="m 860.62745,235.77715 87.37563,113.19145 401.31562,0 0,-116.2219 z"
       id="path4216"
       inkscape:connector-curvature="0" />
    <path
       inkscape:connector-curvature="0"
       id="path4218"
       d="m 953.56148,350.95484 125.76142,162.68892 269.9958,0 0,-165.71937 z"
       style="opacity:1;fill:#00ffff;fill-opacity:1;stroke:none;stroke-width:3.5;stroke-linecap:round;stroke-linejoin:miter;stroke-miterlimit:4;stroke-dasharray:none;stroke-dashoffset:0;stroke-opacity:1"
       sodipodi:nodetypes="ccccc" />
    <path
       sodipodi:nodetypes="ccccc"
       style="opacity:1;fill:#00ffff;fill-opacity:1;stroke:none;stroke-width:3.5;stroke-linecap:round;stroke-linejoin:miter;stroke-miterlimit:4;stroke-dasharray:none;stroke-dashoffset:0;stroke-opacity:1"
       d="m 1080.8407,516.61986 159.0965,203.09502 109.3815,0 0,-206.12547 z"
       id="path4220"
       inkscape:connector-curvature="0" />
    <path
       sodipodi:nodetypes="ccccc"
       style="opacity:1;fill:#00ffff;fill-opacity:1;stroke:none;stroke-width:3.5;stroke-linecap:round;stroke-linejoin:miter;stroke-miterlimit:4;stroke-dasharray:none;stroke-dashoffset:0;stroke-opacity:1"
       d="m 675.79205,-0.06839751 21.14142,27.27411951 652.38523,0 0,-27.2741189 z"
       id="path4222"
       inkscape:connector-curvature="0" />
    <path
       style="opacity:1;fill:#2aff80;fill-opacity:1;stroke:none;stroke-width:3.5;stroke-linecap:round;stroke-linejoin:miter;stroke-miterlimit:4;stroke-dasharray:none;stroke-dashoffset:0;stroke-opacity:1"
       d="M 674.78189,1.9316037 -2.0203051,861.57141 l 191.9289851,0 z"
       id="path4224"
       inkscape:connector-curvature="0"
       sodipodi:nodetypes="cccc" />
    <path
       style="opacity:1;fill:#ff80e5;fill-opacity:1;stroke:none;stroke-width:3.5;stroke-linecap:round;stroke-linejoin:miter;stroke-miterlimit:4;stroke-dasharray:none;stroke-dashoffset:0;stroke-opacity:1"
       d="M 674.78189,2.9417563 191.92898,863.59172 l 216.17264,0 z"
       id="path4226"
       inkscape:connector-curvature="0" />
    <path
       style="opacity:1;fill:#ff0000;fill-opacity:1;stroke:none;stroke-width:3.5;stroke-linecap:round;stroke-linejoin:miter;stroke-miterlimit:4;stroke-dasharray:none;stroke-dashoffset:0;stroke-opacity:1"
       d="M 672.76159,2.9417563 408.10162,867.63233 l 266.68027,0 z"
       id="path4228"
       inkscape:connector-curvature="0" />
    <path
       inkscape:connector-curvature="0"
       id="path4230"
       d="M -3.0304578,0.9214512 674.78189,861.57141 l -196.92899,0 z"
       style="opacity:1;fill:#2aff80;fill-opacity:1;stroke:none;stroke-width:3.5;stroke-linecap:round;stroke-linejoin:miter;stroke-miterlimit:4;stroke-dasharray:none;stroke-dashoffset:0;stroke-opacity:1"
       sodipodi:nodetypes="cccc" />
    <path
       inkscape:connector-curvature="0"
       id="path4232"
       d="M -2.0203051,2.9417563 480.8326,863.59172 l -216.17264,0 z"
       style="opacity:1;fill:#ff80e5;fill-opacity:1;stroke:none;stroke-width:3.5;stroke-linecap:round;stroke-linejoin:miter;stroke-miterlimit:4;stroke-dasharray:none;stroke-dashoffset:0;stroke-opacity:1" />
    <path
       inkscape:connector-curvature="0"
       id="path4234"
       d="M -5.1e-6,2.9417563 264.65996,867.63233 l -266.6802651,0 z"
       style="opacity:1;fill:#ff0000;fill-opacity:1;stroke:none;stroke-width:3.5;stroke-linecap:round;stroke-linejoin:miter;stroke-miterlimit:4;stroke-dasharray:none;stroke-dashoffset:0;stroke-opacity:1" />
    <path
       inkscape:connector-curvature="0"
       id="path4419"
       d="m 1240.2693,721.76272 159.0965,203.09502 23.6672,0 0,-206.12547 z"
       style="opacity:1;fill:#00ffff;fill-opacity:1;stroke:none;stroke-width:3.5;stroke-linecap:round;stroke-linejoin:miter;stroke-miterlimit:4;stroke-dasharray:none;stroke-dashoffset:0;stroke-opacity:1"
       sodipodi:nodetypes="ccccc" />
    <g
       id="g3629"
       style="font-style:normal;font-variant:normal;font-weight:bold;font-stretch:normal;font-size:20px;line-height:125%;font-family:'League Spartan';-inkscape-font-specification:'League Spartan Bold';letter-spacing:1.45000005px;word-spacing:0px;display:inline;fill:#ffffff;fill-opacity:1;stroke:#000000;stroke-width:0.80248469;stroke-linecap:butt;stroke-linejoin:miter;stroke-miterlimit:4;stroke-dasharray:none;stroke-opacity:1"
       transform="matrix(3.3444889,0,0,3.3847319,-126.45375,-427.99012)"
       inkscape:export-xdpi="200.46387"
       inkscape:export-ydpi="200.46387">
      <path
         id="path3631"
         style="letter-spacing:1.45000005px;fill:#ffffff;stroke:#000000;stroke-width:0.80248469;stroke-miterlimit:4;stroke-dasharray:none;stroke-opacity:1"
         d="m 58.38,62.433594 -3.76,0 0,10.88 c 0,1.66 -0.82,2.32 -1.9,2.32 -0.96,0 -2.14,-1.12 -2.14,-1.12 l -1.2,3.14 c 0,0 1.5,1.58 3.86,1.58 3.3,0 5.14,-1.72 5.14,-4.96 l 0,-11.84 z"
         inkscape:connector-curvature="0" />
      <path
         id="path3633"
         style="letter-spacing:1.45000005px;fill:#ffffff;stroke:#000000;stroke-width:0.80248469;stroke-miterlimit:4;stroke-dasharray:none;stroke-opacity:1"
         d="m 74.705,62.433594 -3.76,0 0,9.54 c 0,2.76 -0.84,3.56 -2.68,3.56 -1.84,0 -2.68,-0.8 -2.68,-3.56 l 0,-9.54 -3.76,0 0,10.64 c 0,4.08 2.24,6.16 6.44,6.16 4.2,0 6.44,-2.08 6.44,-6.16 l 0,-10.64 z"
         inkscape:connector-curvature="0" />
      <path
         inkscape:connector-curvature="0"
         id="path3635"
         style="letter-spacing:1.45000005px;fill:#ffffff;stroke:#000000;stroke-width:0.80248469;stroke-miterlimit:4;stroke-dasharray:none;stroke-opacity:1"
         d="m 83.18625,62.133594 c -2.66,0 -5.38,1.96 -5.38,5.04 0,1.72 1.16,3.26 3.14,4.24 1.96,0.98 3.72,1.52 3.72,2.72 0,1.54 -1.56,1.62 -2.38,1.62 -1.84,0 -4.04,-1.86 -4.04,-1.86 l -1.88,3.16 c 0,0 2.34,2.18 6.2,2.18 3.22,0 6.22,-1.38 6.22,-5.32 0,-2.16 -2.02,-3.72 -3.86,-4.5 -1.88,-0.8 -3.44,-1.46 -3.44,-2.38 0,-0.9 0.68,-1.48 1.96,-1.48 1.7,0 3.34,1.14 3.34,1.14 l 1.52,-3 c 0,0 -2.12,-1.56 -5.12,-1.56 z" />
      <path
         inkscape:connector-curvature="0"
         id="path3637"
         style="letter-spacing:1.45000005px;fill:#ffffff;stroke:#000000;stroke-width:0.80248469;stroke-miterlimit:4;stroke-dasharray:none;stroke-opacity:1"
         d="m 90.477186,65.733594 3.92,0 0,13.2 3.76,0 0,-13.2 3.920004,0 0,-3.3 -11.600004,0 0,3.3 z" />
      <path
         id="path3639"
         style="letter-spacing:1.45000005px;fill:#ffffff;stroke:#000000;stroke-width:0.80248469;stroke-miterlimit:4;stroke-dasharray:none;stroke-opacity:1"
         d="m 121.74,62.433594 -9.54,0 0,16.5 3.76,0 0,-6.62 5.34,0 0,-3.3 -5.34,0 0,-3.28 5.78,0 0,-3.3 z"
         inkscape:connector-curvature="0" />
      <path
         id="path3641"
         style="letter-spacing:1.45000005px;fill:#ffffff;stroke:#000000;stroke-width:0.80248469;stroke-miterlimit:4;stroke-dasharray:none;stroke-opacity:1"
         d="m 124.23812,70.673594 c 0,4.82 3.44,8.56 8.32,8.56 4.74,0 8.3,-3.74 8.3,-8.56 0,-4.82 -3.72,-8.54 -8.3,-8.54 -4.54,0 -8.32,3.72 -8.32,8.54 z m 4.06,0 c 0,-2.46 1.36,-4.92 4.26,-4.92 2.92,0 4.24,2.46 4.24,4.92 0,2.46 -1.24,4.92 -4.24,4.92 -3.08,0 -4.26,-2.46 -4.26,-4.92 z"
         inkscape:connector-curvature="0" />
      <path
         id="path3643"
         style="letter-spacing:1.45000005px;fill:#ffffff;stroke:#000000;stroke-width:0.80248469;stroke-miterlimit:4;stroke-dasharray:none;stroke-opacity:1"
         d="m 143.96719,62.433594 0,16.5 3.76,0 0,-6.52 5.04,6.52 4.78,0 -5.68,-6.82 c 2.02,-0.64 3.38,-2.3 3.38,-4.78 0,-3.24 -2.32,-4.9 -5.38,-4.9 l -5.9,0 z m 3.76,7.32 0,-4.32 0.44,0 c 1.42,0 3.12,0.1 3.12,2.16 0,2.06 -1.7,2.16 -3.12,2.16 l -0.44,0 z"
         inkscape:connector-curvature="0" />
      <path
         id="path3645"
         style="letter-spacing:1.45000005px;fill:#ffffff;stroke:#000000;stroke-width:0.80248469;stroke-miterlimit:4;stroke-dasharray:none;stroke-opacity:1"
         d="m 164.65532,65.733594 3.92,0 0,13.2 3.76,0 0,-13.2 3.92,0 0,-3.3 -11.6,0 0,3.3 z"
         inkscape:connector-curvature="0" />
      <path
         id="path3647"
         style="letter-spacing:1.45000005px;fill:#ffffff;stroke:#000000;stroke-width:0.80248469;stroke-miterlimit:4;stroke-dasharray:none;stroke-opacity:1"
         d="m 182.81937,72.313594 5.32,0 0,6.62 3.76,0 0,-16.5 -3.76,0 0,6.58 -5.32,0 0,-6.58 -3.76,0 0,16.5 3.76,0 0,-6.62 z"
         inkscape:connector-curvature="0" />
      <path
         id="path3649"
         style="letter-spacing:1.45000005px;fill:#ffffff;stroke:#000000;stroke-width:0.80248469;stroke-miterlimit:4;stroke-dasharray:none;stroke-opacity:1"
         d="m 205.22281,62.433594 -9.44,0 0,16.5 9.44,0 0,-3.3 -5.68,0 0,-3.32 5.44,0 0,-3.3 -5.44,0 0,-3.28 5.68,0 0,-3.3 z"
         inkscape:connector-curvature="0" />
      <path
         id="path3651"
         style="letter-spacing:1.45000005px;fill:#ffffff;stroke:#000000;stroke-width:0.80248469;stroke-miterlimit:4;stroke-dasharray:none;stroke-opacity:1"
         d="m 51.2,87.433594 0,16.499996 3.76,0 0,-6.519996 5.04,6.519996 4.78,0 -5.68,-6.819996 c 2.02,-0.64 3.38,-2.3 3.38,-4.78 0,-3.24 -2.32,-4.9 -5.38,-4.9 l -5.9,0 z m 3.76,7.32 0,-4.32 0.44,0 c 1.42,0 3.12,0.1 3.12,2.16 0,2.06 -1.7,2.16 -3.12,2.16 l -0.44,0 z"
         inkscape:connector-curvature="0" />
      <path
         id="path3653"
         style="letter-spacing:1.45000005px;fill:#ffffff;stroke:#000000;stroke-width:0.80248469;stroke-miterlimit:4;stroke-dasharray:none;stroke-opacity:1"
         d="m 76.425937,87.433594 -9.44,0 0,16.499996 9.44,0 0,-3.3 -5.68,0 0,-3.319996 5.44,0 0,-3.3 -5.44,0 0,-3.28 5.68,0 0,-3.3 z"
         inkscape:connector-curvature="0" />
      <path
         id="path3655"
         style="letter-spacing:1.45000005px;fill:#ffffff;stroke:#000000;stroke-width:0.80248469;stroke-miterlimit:4;stroke-dasharray:none;stroke-opacity:1"
         d="m 88.8175,100.53359 c -3.78,0 -5.44,-2.639996 -5.44,-4.859996 0,-2.2 1.66,-4.84 5.44,-4.84 1.92,0 3.24,1.02 3.24,1.02 l 1.6,-3.2 c 0,0 -1.84,-1.52 -5.42,-1.52 -4.68,0 -8.94,3.84 -8.94,8.58 0,4.719996 4.28,8.519996 8.94,8.519996 3.58,0 5.42,-1.52 5.42,-1.52 l -1.6,-3.199996 c 0,0 -1.32,1.019996 -3.24,1.019996 z"
         inkscape:connector-curvature="0" />
      <path
         id="path3657"
         style="letter-spacing:1.45000005px;fill:#ffffff;stroke:#000000;stroke-width:0.80248469;stroke-miterlimit:4;stroke-dasharray:none;stroke-opacity:1"
         d="m 95.786561,95.673594 c 0,4.819996 3.44,8.559996 8.319999,8.559996 4.74,0 8.3,-3.74 8.3,-8.559996 0,-4.82 -3.72,-8.54 -8.3,-8.54 -4.539999,0 -8.319999,3.72 -8.319999,8.54 z m 4.06,0 c 0,-2.46 1.359999,-4.92 4.259999,-4.92 2.92,0 4.24,2.46 4.24,4.92 0,2.46 -1.24,4.919996 -4.24,4.919996 -3.08,0 -4.259999,-2.459996 -4.259999,-4.919996 z"
         inkscape:connector-curvature="0" />
      <path
         id="path3659"
         style="letter-spacing:1.45000005px;fill:#ffffff;stroke:#000000;stroke-width:0.80248469;stroke-miterlimit:4;stroke-dasharray:none;stroke-opacity:1"
         d="m 115.51563,87.433594 0,16.499996 3.76,0 0,-6.519996 5.04,6.519996 4.78,0 -5.68,-6.819996 c 2.02,-0.64 3.38,-2.3 3.38,-4.78 0,-3.24 -2.32,-4.9 -5.38,-4.9 l -5.9,0 z m 3.76,7.32 0,-4.32 0.44,0 c 1.42,0 3.12,0.1 3.12,2.16 0,2.06 -1.7,2.16 -3.12,2.16 l -0.44,0 z"
         inkscape:connector-curvature="0" />
      <path
         id="path3661"
         style="letter-spacing:1.45000005px;fill:#ffffff;stroke:#000000;stroke-width:0.80248469;stroke-miterlimit:4;stroke-dasharray:none;stroke-opacity:1"
         d="m 131.30156,87.433594 0,16.499996 4.78,0 c 4.54,0 8.32,-3.44 8.32,-8.259996 0,-4.8 -3.8,-8.24 -8.32,-8.24 l -4.78,0 z m 3.76,13.139996 0,-9.779996 0.58,0 c 2.8,0 4.7,2.14 4.7,4.9 -0.02,2.76 -1.92,4.879996 -4.7,4.879996 l -0.58,0 z"
         inkscape:connector-curvature="0" />
    </g>
    <flowRoot
       xml:space="preserve"
       id="flowRoot4476"
       style="font-style:normal;font-variant:normal;font-weight:500;font-stretch:normal;font-size:20px;line-height:125%;font-family:'Gotham HTF';-inkscape-font-specification:'Gotham HTF Medium';letter-spacing:0px;word-spacing:0px;fill:#000000;fill-opacity:1;stroke:none;stroke-width:1px;stroke-linecap:butt;stroke-linejoin:miter;stroke-opacity:1"
       transform="translate(56,27.99997)"><flowRegion
         id="flowRegion4478"><rect
           id="rect4480"
           width="670.74133"
           height="274.76147"
           x="674.78192"
           y="-253.63696" /></flowRegion><flowPara
         style="font-style:normal;font-variant:normal;font-weight:bold;font-stretch:normal;font-size:40px;font-family:'League Spartan';-inkscape-font-specification:'League Spartan Bold'"
         id="flowPara4494">International Women’s Day</flowPara><flowPara
         style="font-style:normal;font-variant:normal;font-weight:bold;font-stretch:normal;font-size:40px;font-family:'League Spartan';-inkscape-font-specification:'League Spartan Bold'"
         id="flowPara4502">08.03.2016 / 12:00-18:00</flowPara><flowPara
         style="font-style:normal;font-variant:normal;font-weight:bold;font-stretch:normal;font-size:40px;font-family:'League Spartan';-inkscape-font-specification:'League Spartan Bold'"
         id="flowPara4486">Muntpunt, Munt 6 Brussels</flowPara><flowPara
         style="font-style:normal;font-variant:normal;font-weight:bold;font-stretch:normal;font-size:40px;font-family:'League Spartan';-inkscape-font-specification:'League Spartan Bold'"
         id="flowPara4484" /></flowRoot>  </g>
  <g
     inkscape:label="Layer 1"
     inkscape:groupmode="layer"
     id="layer1"
     transform="translate(-450.9299,-1438.2272)"
     sodipodi:insensitive="true"
     style="display:inline">
    <path
       sodipodi:nodetypes="cccccc"
       inkscape:connector-curvature="0"
       id="path4613"
       d="m 1121.4285,1700.9899 0,2182.8166 m 0,0 0,2187.6116 m 0,5.5559 0,2188.4562"
       style="opacity:1;fill:none;fill-opacity:1;stroke:#000000;stroke-width:1.99999976;stroke-linecap:round;stroke-linejoin:miter;stroke-miterlimit:4;stroke-dasharray:none;stroke-dashoffset:0;stroke-opacity:1" />
    <path
       inkscape:connector-curvature="0"
       id="path4651"
       d="m 1121.344,1696.905 -672.47378,0"
       style="opacity:1;fill:none;fill-opacity:1;stroke:#000000;stroke-width:2;stroke-linecap:round;stroke-linejoin:miter;stroke-miterlimit:4;stroke-dasharray:none;stroke-dashoffset:0;stroke-opacity:1"
       sodipodi:nodetypes="cc" />
    <path
       sodipodi:nodetypes="ccc"
       inkscape:connector-curvature="0"
       id="path4611"
       d="M 446.50789,2555.0859 1121.1729,1697.1192 447.26783,2900.7733"
       style="opacity:1;fill:none;fill-opacity:1;stroke:#000000;stroke-width:2;stroke-linecap:round;stroke-linejoin:miter;stroke-miterlimit:4;stroke-dasharray:none;stroke-dashoffset:0;stroke-opacity:1" />
    <path
       inkscape:connector-curvature="0"
       id="path4615"
       d="m 448.96069,1724.0477 649.59021,0"
       style="opacity:1;fill:none;fill-opacity:1;stroke:#000000;stroke-width:1.99999976;stroke-linecap:round;stroke-linejoin:miter;stroke-miterlimit:4;stroke-dasharray:none;stroke-dashoffset:0;stroke-opacity:1"
       sodipodi:nodetypes="cc" />
    <path
       inkscape:connector-curvature="0"
       id="path4617"
       d="m 448.40454,1771.4763 612.45266,0"
       style="opacity:1;fill:none;fill-opacity:1;stroke:#000000;stroke-width:2;stroke-linecap:round;stroke-linejoin:miter;stroke-miterlimit:4;stroke-dasharray:none;stroke-dashoffset:0;stroke-opacity:1"
       sodipodi:nodetypes="cc" />
    <path
       style="opacity:1;fill:none;fill-opacity:1;stroke:#000000;stroke-width:1.99999988;stroke-linecap:round;stroke-linejoin:miter;stroke-miterlimit:4;stroke-dasharray:none;stroke-dashoffset:0;stroke-opacity:1"
       d="m 450.16834,1843.5426 554.85866,0"
       id="path4619"
       inkscape:connector-curvature="0"
       sodipodi:nodetypes="cc" />
    <path
       inkscape:connector-curvature="0"
       id="path4621"
       d="m 447.90353,1930.0477 489.2408,0"
       style="opacity:1;fill:none;fill-opacity:1;stroke:#000000;stroke-width:1.99999976;stroke-linecap:round;stroke-linejoin:miter;stroke-miterlimit:4;stroke-dasharray:none;stroke-dashoffset:0;stroke-opacity:1"
       sodipodi:nodetypes="cc" />
    <path
       style="opacity:1;fill:none;fill-opacity:1;stroke:#000000;stroke-width:2;stroke-linecap:round;stroke-linejoin:miter;stroke-miterlimit:4;stroke-dasharray:none;stroke-dashoffset:0;stroke-opacity:1"
       d="m 449.53225,2046.9048 396.6517,0"
       id="path4623"
       inkscape:connector-curvature="0"
       sodipodi:nodetypes="cc" />
    <path
       sodipodi:nodetypes="cc"
       inkscape:connector-curvature="0"
       id="path4625"
       d="M 446.78303,3883.1739 1121.0894,1698.4865"
       style="opacity:1;fill:none;fill-opacity:1;stroke:#000000;stroke-width:2;stroke-linecap:round;stroke-linejoin:miter;stroke-miterlimit:4;stroke-dasharray:none;stroke-dashoffset:0;stroke-opacity:1" />
    <path
       sodipodi:nodetypes="cc"
       inkscape:connector-curvature="0"
       id="path4943"
       d="m 449.21544,2210.9048 267.65497,0"
       style="opacity:1;fill:none;fill-opacity:1;stroke:#000000;stroke-width:2;stroke-linecap:round;stroke-linejoin:miter;stroke-miterlimit:4;stroke-dasharray:none;stroke-dashoffset:0;stroke-opacity:1" />
    <path
       style="opacity:1;fill:none;fill-opacity:1;stroke:#000000;stroke-width:1.99999988;stroke-linecap:round;stroke-linejoin:miter;stroke-miterlimit:4;stroke-dasharray:none;stroke-dashoffset:0;stroke-opacity:1"
       d="m 448.83365,2416.9047 106.49822,0"
       id="path4947"
       inkscape:connector-curvature="0"
       sodipodi:nodetypes="cc" />
    <g
       id="g4962"
       transform="matrix(-1,0,0,1,2242.9829,0)">
      <path
         sodipodi:nodetypes="ccc"
         inkscape:connector-curvature="0"
         id="path4964"
         d="M 450.07932,2551.8716 1121.1729,1697.1192 447.4919,2902.2439"
         style="opacity:1;fill:none;fill-opacity:1;stroke:#000000;stroke-width:2;stroke-linecap:round;stroke-linejoin:miter;stroke-miterlimit:4;stroke-dasharray:none;stroke-dashoffset:0;stroke-opacity:1" />
      <path
         inkscape:connector-curvature="0"
         id="path4966"
         d="m 448.96069,1724.0477 649.59021,0"
         style="opacity:1;fill:none;fill-opacity:1;stroke:#000000;stroke-width:1.99999976;stroke-linecap:round;stroke-linejoin:miter;stroke-miterlimit:4;stroke-dasharray:none;stroke-dashoffset:0;stroke-opacity:1"
         sodipodi:nodetypes="cc" />
      <path
         inkscape:connector-curvature="0"
         id="path4968"
         d="m 448.40454,1771.4763 612.45266,0"
         style="opacity:1;fill:none;fill-opacity:1;stroke:#000000;stroke-width:2;stroke-linecap:round;stroke-linejoin:miter;stroke-miterlimit:4;stroke-dasharray:none;stroke-dashoffset:0;stroke-opacity:1"
         sodipodi:nodetypes="cc" />
      <path
         style="opacity:1;fill:none;fill-opacity:1;stroke:#000000;stroke-width:1.99999988;stroke-linecap:round;stroke-linejoin:miter;stroke-miterlimit:4;stroke-dasharray:none;stroke-dashoffset:0;stroke-opacity:1"
         d="m 450.16834,1843.5426 554.85866,0"
         id="path4970"
         inkscape:connector-curvature="0"
         sodipodi:nodetypes="cc" />
      <path
         inkscape:connector-curvature="0"
         id="path4972"
         d="m 447.90353,1930.0477 489.2408,0"
         style="opacity:1;fill:none;fill-opacity:1;stroke:#000000;stroke-width:1.99999976;stroke-linecap:round;stroke-linejoin:miter;stroke-miterlimit:4;stroke-dasharray:none;stroke-dashoffset:0;stroke-opacity:1"
         sodipodi:nodetypes="cc" />
      <path
         style="opacity:1;fill:none;fill-opacity:1;stroke:#000000;stroke-width:2;stroke-linecap:round;stroke-linejoin:miter;stroke-miterlimit:4;stroke-dasharray:none;stroke-dashoffset:0;stroke-opacity:1"
         d="m 449.53225,2046.9048 396.6517,0"
         id="path4974"
         inkscape:connector-curvature="0"
         sodipodi:nodetypes="cc" />
      <path
         sodipodi:nodetypes="cc"
         inkscape:connector-curvature="0"
         id="path4976"
         d="M 447.81869,3885.2981 1121.0894,1698.4865"
         style="opacity:1;fill:none;fill-opacity:1;stroke:#000000;stroke-width:2;stroke-linecap:round;stroke-linejoin:miter;stroke-miterlimit:4;stroke-dasharray:none;stroke-dashoffset:0;stroke-opacity:1" />
      <path
         sodipodi:nodetypes="cc"
         inkscape:connector-curvature="0"
         id="path4978"
         d="m 449.21544,2210.9048 267.65497,0"
         style="opacity:1;fill:none;fill-opacity:1;stroke:#000000;stroke-width:2;stroke-linecap:round;stroke-linejoin:miter;stroke-miterlimit:4;stroke-dasharray:none;stroke-dashoffset:0;stroke-opacity:1" />
      <path
         style="opacity:1;fill:none;fill-opacity:1;stroke:#000000;stroke-width:1.99999988;stroke-linecap:round;stroke-linejoin:miter;stroke-miterlimit:4;stroke-dasharray:none;stroke-dashoffset:0;stroke-opacity:1"
         d="m 448.83365,2416.9047 106.49822,0"
         id="path4980"
         inkscape:connector-curvature="0"
         sodipodi:nodetypes="cc" />
    </g>
    <path
       sodipodi:nodetypes="cc"
       style="opacity:1;fill:none;fill-opacity:1;stroke:#000000;stroke-width:2;stroke-linecap:round;stroke-linejoin:miter;stroke-miterlimit:4;stroke-dasharray:none;stroke-dashoffset:0;stroke-opacity:1"
       d="m 1793.8445,1696.905 -672.1177,0"
       id="path4982"
       inkscape:connector-curvature="0" />
    <path
       style="opacity:1;fill:none;fill-opacity:1;stroke:#000000;stroke-width:1.99999976;stroke-linecap:round;stroke-linejoin:miter;stroke-miterlimit:4;stroke-dasharray:none;stroke-dashoffset:0;stroke-opacity:1"
       d="m 446.49915,3885.87 0,2185.8205"
       id="path3385"
       inkscape:connector-curvature="0"
       sodipodi:nodetypes="cc" />
    <path
       sodipodi:nodetypes="cc"
       style="opacity:1;fill:none;fill-opacity:1;stroke:#000000;stroke-width:2;stroke-linecap:round;stroke-linejoin:miter;stroke-miterlimit:4;stroke-dasharray:none;stroke-dashoffset:0;stroke-opacity:1"
       d="m 446.58375,3883.7611 672.47375,0"
       id="path3387"
       inkscape:connector-curvature="0" />
    <path
       style="opacity:1;fill:none;fill-opacity:1;stroke:#000000;stroke-width:2;stroke-linecap:round;stroke-linejoin:miter;stroke-miterlimit:4;stroke-dasharray:none;stroke-dashoffset:0;stroke-opacity:1"
       d="M 1121.4199,4641.9369 446.75485,3883.9753 1120.6599,5087.6294"
       id="path3389"
       inkscape:connector-curvature="0"
       sodipodi:nodetypes="ccc" />
    <path
       sodipodi:nodetypes="cc"
       style="opacity:1;fill:none;fill-opacity:1;stroke:#000000;stroke-width:1.99999976;stroke-linecap:round;stroke-linejoin:miter;stroke-miterlimit:4;stroke-dasharray:none;stroke-dashoffset:0;stroke-opacity:1"
       d="M 1118.9671,3910.9038 446.73264,3884.8974"
       id="path3391"
       inkscape:connector-curvature="0" />
    <path
       sodipodi:nodetypes="cc"
       style="opacity:1;fill:none;fill-opacity:1;stroke:#000000;stroke-width:2;stroke-linecap:round;stroke-linejoin:miter;stroke-miterlimit:4;stroke-dasharray:none;stroke-dashoffset:0;stroke-opacity:1"
       d="M 1119.5232,3958.3324 447.07055,3884.9702"
       id="path3393"
       inkscape:connector-curvature="0" />
    <path
       sodipodi:nodetypes="cc"
       inkscape:connector-curvature="0"
       id="path3395"
       d="M 1117.7594,4030.3987 446.73321,3884.9367"
       style="opacity:1;fill:none;fill-opacity:1;stroke:#000000;stroke-width:1.99999988;stroke-linecap:round;stroke-linejoin:miter;stroke-miterlimit:4;stroke-dasharray:none;stroke-dashoffset:0;stroke-opacity:1" />
    <path
       sodipodi:nodetypes="cc"
       style="opacity:1;fill:none;fill-opacity:1;stroke:#000000;stroke-width:1.99999976;stroke-linecap:round;stroke-linejoin:miter;stroke-miterlimit:4;stroke-dasharray:none;stroke-dashoffset:0;stroke-opacity:1"
       d="M 1120.0242,4116.9038 446.93566,3885.5789"
       id="path3397"
       inkscape:connector-curvature="0" />
    <path
       sodipodi:nodetypes="cc"
       inkscape:connector-curvature="0"
       id="path3399"
       d="M 1118.3955,4233.7609 446.47723,3884.7532"
       style="opacity:1;fill:none;fill-opacity:1;stroke:#000000;stroke-width:2;stroke-linecap:round;stroke-linejoin:miter;stroke-miterlimit:4;stroke-dasharray:none;stroke-dashoffset:0;stroke-opacity:1" />
    <path
       style="opacity:1;fill:none;fill-opacity:1;stroke:#000000;stroke-width:2;stroke-linecap:round;stroke-linejoin:miter;stroke-miterlimit:4;stroke-dasharray:none;stroke-dashoffset:0;stroke-opacity:1"
       d="M 1121.1837,6070.7034 446.83835,3885.3426"
       id="path3401"
       inkscape:connector-curvature="0"
       sodipodi:nodetypes="cc" />
    <path
       style="opacity:1;fill:none;fill-opacity:1;stroke:#000000;stroke-width:2;stroke-linecap:round;stroke-linejoin:miter;stroke-miterlimit:4;stroke-dasharray:none;stroke-dashoffset:0;stroke-opacity:1"
       d="M 1118.7123,4397.7609 444.97602,3884.6034"
       id="path3403"
       inkscape:connector-curvature="0"
       sodipodi:nodetypes="cc" />
    <g
       transform="matrix(-1,0,0,1,2242.9829,4380)"
       id="g3409">
      <path
         style="opacity:1;fill:none;fill-opacity:1;stroke:#000000;stroke-width:2;stroke-linecap:round;stroke-linejoin:miter;stroke-miterlimit:4;stroke-dasharray:none;stroke-dashoffset:0;stroke-opacity:1"
         d="M 450.07932,2551.8716 1121.1729,1697.1192 447.4919,2902.2439"
         id="path3411"
         inkscape:connector-curvature="0"
         sodipodi:nodetypes="ccc" />
      <path
         sodipodi:nodetypes="cc"
         style="opacity:1;fill:none;fill-opacity:1;stroke:#000000;stroke-width:1.99999976;stroke-linecap:round;stroke-linejoin:miter;stroke-miterlimit:4;stroke-dasharray:none;stroke-dashoffset:0;stroke-opacity:1"
         d="m 448.96069,1724.0477 649.59021,0"
         id="path3413"
         inkscape:connector-curvature="0" />
      <path
         sodipodi:nodetypes="cc"
         style="opacity:1;fill:none;fill-opacity:1;stroke:#000000;stroke-width:2;stroke-linecap:round;stroke-linejoin:miter;stroke-miterlimit:4;stroke-dasharray:none;stroke-dashoffset:0;stroke-opacity:1"
         d="m 448.40454,1771.4763 612.45266,0"
         id="path3415"
         inkscape:connector-curvature="0" />
      <path
         sodipodi:nodetypes="cc"
         inkscape:connector-curvature="0"
         id="path3417"
         d="m 450.16834,1843.5426 554.85866,0"
         style="opacity:1;fill:none;fill-opacity:1;stroke:#000000;stroke-width:1.99999988;stroke-linecap:round;stroke-linejoin:miter;stroke-miterlimit:4;stroke-dasharray:none;stroke-dashoffset:0;stroke-opacity:1" />
      <path
         sodipodi:nodetypes="cc"
         style="opacity:1;fill:none;fill-opacity:1;stroke:#000000;stroke-width:1.99999976;stroke-linecap:round;stroke-linejoin:miter;stroke-miterlimit:4;stroke-dasharray:none;stroke-dashoffset:0;stroke-opacity:1"
         d="m 447.90353,1930.0477 489.2408,0"
         id="path3419"
         inkscape:connector-curvature="0" />
      <path
         sodipodi:nodetypes="cc"
         inkscape:connector-curvature="0"
         id="path3421"
         d="m 449.53225,2046.9048 396.6517,0"
         style="opacity:1;fill:none;fill-opacity:1;stroke:#000000;stroke-width:2;stroke-linecap:round;stroke-linejoin:miter;stroke-miterlimit:4;stroke-dasharray:none;stroke-dashoffset:0;stroke-opacity:1" />
      <path
         style="opacity:1;fill:none;fill-opacity:1;stroke:#000000;stroke-width:2;stroke-linecap:round;stroke-linejoin:miter;stroke-miterlimit:4;stroke-dasharray:none;stroke-dashoffset:0;stroke-opacity:1"
         d="M 447.81869,3885.2981 1121.0894,1698.4865"
         id="path3423"
         inkscape:connector-curvature="0"
         sodipodi:nodetypes="cc" />
      <path
         style="opacity:1;fill:none;fill-opacity:1;stroke:#000000;stroke-width:2;stroke-linecap:round;stroke-linejoin:miter;stroke-miterlimit:4;stroke-dasharray:none;stroke-dashoffset:0;stroke-opacity:1"
         d="m 449.21544,2210.9048 267.65497,0"
         id="path3425"
         inkscape:connector-curvature="0"
         sodipodi:nodetypes="cc" />
      <path
         sodipodi:nodetypes="cc"
         inkscape:connector-curvature="0"
         id="path3427"
         d="m 448.83365,2416.9047 106.49822,0"
         style="opacity:1;fill:none;fill-opacity:1;stroke:#000000;stroke-width:1.99999988;stroke-linecap:round;stroke-linejoin:miter;stroke-miterlimit:4;stroke-dasharray:none;stroke-dashoffset:0;stroke-opacity:1" />
    </g>
    <path
       inkscape:connector-curvature="0"
       id="path3429"
       d="m 1793.8445,6076.905 -672.1177,0"
       style="opacity:1;fill:none;fill-opacity:1;stroke:#000000;stroke-width:2;stroke-linecap:round;stroke-linejoin:miter;stroke-miterlimit:4;stroke-dasharray:none;stroke-dashoffset:0;stroke-opacity:1"
       sodipodi:nodetypes="cc" />
  </g>
  <g
     inkscape:groupmode="layer"
     id="layer5"
     inkscape:label="Layer 3"
     style="display:inline"
     sodipodi:insensitive="true"
     transform="translate(-4.0406103,257.67758)">
    <rect
       y="-393.2886"
       x="-88.571533"
       height="1374.5789"
       width="91.428574"
       id="rect4364"
       style="opacity:1;fill:#ffffff;fill-opacity:1;stroke:none;stroke-width:1.89999998;stroke-linecap:round;stroke-linejoin:miter;stroke-miterlimit:4;stroke-dasharray:none;stroke-dashoffset:0;stroke-opacity:1" />
    <rect
       style="opacity:1;fill:#ffffff;fill-opacity:1;stroke:none;stroke-width:1.89999998;stroke-linecap:round;stroke-linejoin:miter;stroke-miterlimit:4;stroke-dasharray:none;stroke-dashoffset:0;stroke-opacity:1"
       id="rect4366"
       width="91.428574"
       height="1374.5789"
       x="1349.8853"
       y="-393.2886" />
    <rect
       y="851.21979"
       x="-76.450195"
       height="542.2132"
       width="1505.6422"
       id="rect4368"
       style="opacity:1;fill:#ffffff;fill-opacity:1;stroke:none;stroke-width:1.89999998;stroke-linecap:round;stroke-linejoin:miter;stroke-miterlimit:4;stroke-dasharray:none;stroke-dashoffset:0;stroke-opacity:1" />
    <rect
       style="opacity:1;fill:#ffffff;fill-opacity:1;stroke:none;stroke-width:1.89999998;stroke-linecap:round;stroke-linejoin:miter;stroke-miterlimit:4;stroke-dasharray:none;stroke-dashoffset:0;stroke-opacity:1"
       id="rect4371"
       width="1505.6422"
       height="154.31462"
       x="-76.450195"
       y="-413.49115" />
  </g>
  <g
     inkscape:groupmode="layer"
     id="layer6"
     inkscape:label="Layer 4"
     transform="translate(-4.0406103,257.67758)"
     sodipodi:insensitive="true"
     style="display:none">
    <rect
       style="opacity:1;fill:#000000;fill-opacity:1;stroke:none;stroke-width:2.70000005;stroke-linecap:round;stroke-linejoin:miter;stroke-miterlimit:4;stroke-dasharray:none;stroke-dashoffset:0;stroke-opacity:1"
       id="rect4509"
       width="1341.4827"
       height="1107.1272"
       x="4.0406103"
       y="-257.67761" />
  </g>
</svg>
